<svg xmlns="http://www.w3.org/2000/svg" viewBox="0 0 80 39.482656"><path d="M0 14.593s23.684-3.11 24.354-3.205c1.005-.192 1.914-.383 2.775-.622a18.15 18.15 0 0 0 5.263-2.393c1.484-1.005 2.871-2.488 4.259-4.115.861-1.004 1.818-2.344 2.68-3.636V0a30.86 30.86 0 0 1-3.063 3.971c-1.388 1.58-2.823 2.823-4.258 3.78-1.532.957-3.206 1.723-5.072 2.153-.814.192-1.723.383-2.727.527-.67.095-1.34.143-1.962.239C22.009 10.718 0 13.062 0 13.062v1.531z" fill="#fff"/><path d="M31.77 10.574c-1.483.861-3.205 1.483-5.071 1.866-.814.144-1.675.287-2.68.43-.574.049-1.196.097-1.77.192-.335.048-.622.048-.957.096-7.273.67-14.498 1.34-21.244 2.01v1.53c6.794-.813 14.067-1.722 21.34-2.535.334-.048.622-.096.956-.096.575-.048 1.197-.144 1.77-.191a33.118 33.118 0 0 0 2.776-.479 17.767 17.767 0 0 0 5.263-2.057c1.531-.91 2.87-2.201 4.306-3.78.91-1.005 1.914-2.393 2.871-3.684V3.3a35.431 35.431 0 0 1-3.206 3.876c-1.387 1.388-2.87 2.584-4.354 3.397" fill="#fff"/><path d="M35.933 10.191c-1.435 1.34-2.966 2.393-4.498 3.11-1.483.718-3.157 1.244-5.12 1.58-.813.143-1.674.239-2.679.334L0 17.177v1.531l21.005-2.2 2.727-.288a20.41 20.41 0 0 0 2.727-.43c2.01-.383 3.732-.957 5.311-1.77 1.58-.814 3.158-2.154 4.641-3.542 1.005-.956 1.914-2.153 2.967-3.445v-.526c-1.196 1.436-2.345 2.68-3.445 3.684" fill="#fff"/><path d="M30.24 18.23c-1.388.765-2.393 1.244-4.355 1.435-1.196.144-2.392.191-3.588.24-.575.047-1.149.047-1.723.095-3.588.191-7.081.43-10.67.67l-9.856.67v1.53L10 21.963c3.206-.287 6.986-.622 10.622-.91l2.68-.19c1.052-.096 1.865-.144 2.679-.288 2.01-.24 3.732-.67 5.263-1.244 1.627-.622 3.206-1.579 4.737-2.727 1.387-1.005 3.35-3.014 3.35-3.062v-.527c-1.293 1.244-2.01 1.962-3.398 2.871-1.675 1.053-4.498 1.675-5.694 2.345" fill="#fff"/><path d="M30.718 21.196c-1.484.43-3.158.718-5.12.91-.813.047-1.675.143-2.631.143l-2.632.095c-6.555.288-13.11.67-20.287 1.053v1.531c6.89-.526 13.636-1.052 20.383-1.53l2.631-.192a33.446 33.446 0 0 0 2.632-.24c2.01-.239 3.732-.574 5.263-1.052 1.675-.526 3.35-1.34 4.88-2.345 1.149-.717 2.297-1.626 3.493-2.679-1.34 1.148-2.584 1.388-3.828 2.153a23.7 23.7 0 0 1-4.784 2.153" fill="#fff"/><path d="M30.478 23.732c-1.483.335-3.11.574-5.12.718-.765.048-1.578.095-2.583.143l-2.631.096c-6.603.24-13.302.526-20.096.861v1.531c6.794-.478 13.445-.909 20.191-1.34l2.632-.143c1.005-.048 1.866-.096 2.631-.191 2.01-.192 3.685-.479 5.216-.862 1.722-.43 3.397-1.1 4.976-1.961a26.741 26.741 0 0 0 3.684-2.393v-.67c-1.388 1.005-2.68 1.819-3.971 2.44-1.627.766-3.254 1.388-4.929 1.771" fill="#fff"/><path d="M30.24 26.22c-1.484.287-3.11.479-5.12.574-.766.048-1.531.048-2.584.096L0 27.512v1.531l20-1.053 2.584-.143c1.005-.048 1.818-.096 2.583-.144 2.01-.143 3.637-.382 5.168-.717 1.722-.383 3.445-.91 5.024-1.58 1.292-.526 2.584-1.195 3.923-2.009v-.622c-1.435.861-2.775 1.531-4.162 2.058a22.203 22.203 0 0 1-4.88 1.387" fill="#fff"/><path d="M30.096 28.756c-2.775.383-5.598.43-8.374.478-.622 0-1.244 0-1.913.048L0 29.665v1.531l19.856-.909c.622-.048 1.244-.048 1.866-.096 2.776-.095 5.646-.239 8.47-.67a32.746 32.746 0 0 0 5.071-1.243c1.34-.431 2.68-1.005 4.067-1.723v-.574c-1.435.67-2.87 1.244-4.258 1.675-1.58.526-3.254.86-4.976 1.1M29.904 31.292c-2.583.24-5.263.24-7.799.24h-2.392L0 31.674v1.53c6.316-.238 13.014-.43 19.713-.621.813-.048 1.579-.048 2.392-.048 2.584-.048 5.263-.144 7.847-.43 1.818-.192 3.493-.48 5.072-.91 1.387-.335 2.823-.813 4.258-1.34v-.574a41.246 41.246 0 0 1-4.402 1.292 36.557 36.557 0 0 1-4.976.718M29.809 33.78c-1.1.048-2.25.048-3.589.048h-1.483l-5.12-.048c-3.493-.048-6.938-.048-10.191-.048H0v1.531l9.474-.191c3.253-.096 6.698-.144 10.191-.24l5.12-.047c1.387 0 3.253-.048 5.12-.192 1.817-.143 3.492-.287 5.071-.574 1.435-.24 2.919-.526 4.354-.909v-.526c-1.531.335-3.014.574-4.45.813a54.728 54.728 0 0 1-5.071.383M24.689 36.22l-5.072-.048c-6.507-.095-12.966-.191-19.57-.335v1.531l19.57-.143 5.072-.096c1.722-.048 3.397-.048 5.072-.096a93.536 93.536 0 0 0 9.57-.765v-.526c-2.92.335-6.077.478-9.57.526-1.675-.048-3.397-.048-5.072-.048M39.33 39.474v-.527L0 37.943v1.53zM35.79 13.11c-1.484 1.196-2.632 2.057-4.498 2.823-1.58.622-3.302.91-5.263 1.148-1.244.192-2.584.431-3.828.527-.526.048-1.053.048-1.531.095L0 19.234v1.532l20.766-2.01 2.679-.24a38.685 38.685 0 0 0 2.727-.334c2.01-.335 3.732-.814 5.311-1.531 1.627-.718 3.254-1.866 4.737-3.158 1.053-.861 2.01-1.962 3.11-3.158V9.76c-1.292 1.34-2.392 2.44-3.54 3.349M56.077 0s7.08 11.292 8.373 13.35c1.292 2.057 2.775 3.683 7.99 4.832 5.216 1.1 7.512 1.627 7.512 1.627v.382s-3.35-.717-7.608-1.674c-4.258-.957-6.028-1.292-7.99-3.972C62.727 12.297 56.03 2.68 56.03 2.68V0zM56.077 12.87s6.459 6.747 8.325 8.709c1.962 2.057 4.498 2.823 7.99 3.445 3.35.574 7.56 1.292 7.56 1.292v.383s-3.971-.67-7.56-1.244c-3.54-.622-6.028-.957-8.038-2.823-1.818-1.675-8.277-7.752-8.277-7.752v-2.01z" fill="#fff"/><path d="M56.077 15.933s6.124 5.694 8.325 7.608c2.01 1.77 3.636 2.344 8.038 3.11 4.402.765 7.56 1.244 7.56 1.244v.383s-3.971-.67-7.56-1.245c-3.588-.574-5.885-.813-7.99-2.535a2258.84 2258.84 0 0 1-8.326-6.795v-1.77z" fill="#fff"/><path d="M56.077 19.187s6.985 5.55 8.325 6.507c1.292.957 3.014 2.105 8.038 2.823 4.976.717 7.512 1.1 7.512 1.1v.43s-4.497-.669-7.512-1.052c-3.014-.383-5.31-.526-8.038-2.344-2.632-1.77-8.325-5.742-8.325-5.742v-1.722z" fill="#fff"/><path d="M56.077 22.297s7.033 4.689 8.325 5.406c1.34.718 2.87 1.962 7.99 2.584 5.12.67 7.512.957 7.512.957v.383s-4.258-.479-7.56-.814c-3.3-.382-5.55-.86-8.038-2.2-2.488-1.34-8.325-4.785-8.325-4.785v-1.531z" fill="#fff"/><path d="M56.077 25.407s6.22 3.397 8.325 4.45c2.344 1.196 4.354 1.722 8.038 2.153 3.589.43 7.56.86 7.56.86v.384s-3.636-.383-7.56-.766c-3.875-.383-5.263-.526-8.038-1.77-2.488-1.1-8.325-3.828-8.325-3.828v-1.483z" fill="#fff"/><path d="M56.077 28.565s4.88 2.105 8.325 3.445c3.397 1.34 5.98 1.435 8.038 1.674.91.096 7.512.766 7.512.766v.383s-3.923-.335-7.512-.622c-3.588-.335-5.12-.431-8.038-1.436-2.919-.957-8.325-2.87-8.325-2.87v-1.34zM56.077 31.77s4.928 1.531 8.325 2.44c3.397.91 6.46 1.245 8.038 1.34 1.58.096 7.512.574 7.512.574v.383s-3.397-.24-7.56-.526c-3.349-.24-6.076-.479-8.038-.91-2.2-.478-8.325-1.913-8.325-1.913V31.77zM56.077 34.928s4.067.718 8.325 1.388c3.206.526 7.56.861 7.99.909.479 0 7.56.526 7.56.526v.383s-4.545-.24-7.56-.383c-3.158-.191-6.268-.383-8.038-.526-3.971-.43-8.325-.957-8.325-.957v-1.34zM56.077 38.23s6.363.239 8.325.287c1.962.048 15.55.574 15.55.574v.383H56.077V38.23zM72.392 19.904c-5.79-1.244-7.081-3.349-8.038-4.689-.957-1.292-8.277-12.01-8.277-12.01v2.393c.287.383 6.555 8.565 8.325 10.813 1.962 2.536 5.072 3.11 8.038 3.78 2.967.622 7.56 1.531 7.56 1.531v-.334c-.048.047-6.124-1.149-7.608-1.484" fill="#fff"/><path d="M72.392 21.579c-4.736-.91-6.65-2.44-8.038-4.258a9685.222 9685.222 0 0 1-8.277-10.91v2.297c.287.335 6.602 7.8 8.277 9.76 1.962 2.25 4.737 2.872 8.038 3.446 3.35.622 7.56 1.435 7.56 1.435v-.335s-4.832-.909-7.56-1.435" fill="#fff"/><path d="M72.392 23.35c-4.928-.958-5.933-1.723-8.038-4.02-1.292-1.435-8.038-9.378-8.325-9.713v2.105s6.268 6.7 8.277 8.66c2.632 2.585 5.12 2.776 8.038 3.302 2.92.527 7.56 1.388 7.56 1.388v-.383c.048.048-5.55-.957-7.512-1.34" fill="#fff"/><path fill="#022b5b" d="M16.364 16.124h34.45v23.063h-34.45z"/><path fill="none" stroke="#fff" stroke-width=".60335067" d="M16.364 16.124h34.45v23.063h-34.45z"/><path fill="#fff" d="M32.057 19.378h1.197l.335-1.148.382 1.148h1.196l-1.004.766.382 1.196-.956-.718-.957.718.382-1.196zM32.105 34.785h1.196l.335-1.149.383 1.149h1.196l-1.004.717.382 1.149-.957-.718-.957.718.383-1.149zM35.885 33.732h1.196l.383-1.1.335 1.1h1.196l-.957.718.383 1.148-.957-.67-1.005.67.383-1.148zM35.885 20.43h1.196l.383-1.148.335 1.149h1.196l-.957.717.383 1.149-.957-.718-1.005.718.383-1.149zM38.708 23.254h1.196l.383-1.149.335 1.149h1.196l-.957.717.383 1.149-.957-.718-1.005.718.383-1.149zM38.708 30.957h1.196l.383-1.1.335 1.1h1.196l-.957.718.383 1.148-.957-.67-1.005.67.383-1.148zM39.76 27.033h1.197l.383-1.1.335 1.1h1.196l-.957.718.383 1.149-.957-.67-.957.67.335-1.149zM28.182 20.43h1.196l.335-1.1.383 1.1h1.196l-.957.718.335 1.149-.957-.718-.957.718.383-1.149zM25.407 23.254h1.196l.383-1.1.335 1.1h1.196l-.957.717.383 1.149-.957-.718-.957.718.382-1.149zM24.402 27.033h1.196l.383-1.1.335 1.1h1.196l-.957.766.383 1.148-.957-.717-.957.717.335-1.148zM25.407 30.957h1.196l.383-1.1.335 1.1h1.196l-.957.765.383 1.149-.957-.718-.957.718.382-1.149zM28.23 33.78h1.196l.335-1.148.335 1.148h1.244l-1.005.718.383 1.148-.957-.718-.957.718.383-1.148z"/></svg>