<svg xmlns="http://www.w3.org/2000/svg" viewBox="0 0 60.457626 22.373594"><path d="M58.884 1.573C58.045.524 56.577 0 54.794 0c-1.784 0-3.148.63-4.092 1.783-1.049 1.154-1.468 2.413-1.468 3.776 0 1.05.42 1.993 1.154 2.833.734.839 1.993 1.258 3.671 1.258h1.783c-.42 1.364-.944 2.518-1.573 3.462-.63.944-1.469 1.783-2.308 2.517-.839.735-1.888 1.469-2.937 2.098a51.544 51.544 0 0 1-3.461 1.888l1.258 2.623a60.179 60.179 0 0 0 3.986-2.203c1.574-.944 3.042-2.098 4.616-3.462a16.454 16.454 0 0 0 3.566-4.72c.944-1.888 1.469-3.881 1.469-6.189-.21-1.678-.735-3.042-1.574-4.09zm-15.105 0C42.94.524 41.472 0 39.69 0c-1.784 0-3.147.63-4.092 1.783C34.55 2.937 34.13 4.196 34.13 5.56c0 1.05.42 1.993 1.154 2.833.734.839 1.993 1.258 3.671 1.258h1.783c-.42 1.364-.944 2.518-1.573 3.462-.63.944-1.469 1.783-2.308 2.517-.839.735-1.888 1.469-2.937 2.098a51.54 51.54 0 0 1-3.461 1.888l1.258 2.623a60.183 60.183 0 0 0 3.986-2.203c1.574-.944 3.042-2.098 4.616-3.462a16.454 16.454 0 0 0 3.566-4.72c.944-1.888 1.469-3.881 1.469-6.189-.315-1.678-.735-3.042-1.574-4.09zM1.573 20.8c.84 1.05 2.308 1.574 4.091 1.574 1.784 0 3.147-.63 4.091-1.784 1.05-1.153 1.469-2.412 1.469-3.776 0-1.049-.42-1.993-1.154-2.832-.734-.84-1.993-1.259-3.671-1.259H4.615c.42-1.363.944-2.517 1.574-3.461.63-.944 1.468-1.784 2.308-2.518.839-.734 1.888-1.468 2.937-2.098a51.543 51.543 0 0 1 3.461-1.888L13.636.136A60.182 60.182 0 0 0 9.65 2.339C8.077 3.283 6.608 4.437 5.035 5.8a16.454 16.454 0 0 0-3.566 4.72C.524 12.41 0 14.402 0 16.71c.21 1.678.63 3.041 1.573 4.09zm15.105 0c.84 1.05 2.308 1.574 4.091 1.574 1.783 0 3.147-.63 4.091-1.784 1.05-1.153 1.469-2.412 1.469-3.776 0-1.049-.42-1.993-1.154-2.832-.734-.84-1.993-1.259-3.672-1.259H19.72c.42-1.363.944-2.517 1.574-3.461.63-.944 1.468-1.784 2.307-2.518.84-.734 1.889-1.468 2.937-2.098A51.543 51.543 0 0 1 30 2.758L28.741.136a60.182 60.182 0 0 0-3.986 2.203c-1.573.944-3.042 2.098-4.615 3.461a16.454 16.454 0 0 0-3.567 4.72c-.944 1.889-1.153 3.882-1.153 6.19 0 1.678.42 3.041 1.258 4.09z" fill="#b0c5de"/></svg>