<svg xmlns="http://www.w3.org/2000/svg" width="20" height="19.998"><path d="M15.02 19.998H4.978C2.146 19.998 0 17.766 0 15.02V4.978C0 2.146 2.231 0 4.978 0H15.02c2.832 0 4.978 2.232 4.978 4.978V15.02c.085 2.746-2.146 4.978-4.978 4.978zM16.565 7.38l-1.116-1.116c-.086-.085-.43-.085-.515 0l-5.579 5.58c-.086.085-.429.085-.515 0l-2.403-2.49c-.086-.086-.172-.086-.257-.086-.086 0-.172 0-.258.086l-1.116 1.03c-.086.086-.086.172-.086.258 0 .085 0 .171.086.257l2.49 2.575.514.515 1.116 1.115c.086.086.43.086.515 0l7.21-7.209c0-.172 0-.343-.086-.515z" fill="#fff"/></svg>