<svg xmlns="http://www.w3.org/2000/svg" width="448" height="384" viewBox="0 0 448 384"><path d="M352 232v80q0 29.75-21.125 50.875T280 384H72q-29.75 0-50.875-21.125T0 312V104q0-29.75 21.125-50.875T72 32h176q3.5 0 5.75 2.25T256 40v16q0 3.5-2.25 5.75T248 64H72q-16.5 0-28.25 11.75T32 104v208q0 16.5 11.75 28.25T72 352h208q16.5 0 28.25-11.75T320 312v-80q0-3.5 2.25-5.75T328 224h16q3.5 0 5.75 2.25T352 232zm96-216v128q0 6.5-4.75 11.25T432 160q-6.5 0-11.25-4.75l-44-44-163 163q-2.5 2.5-5.75 2.5t-5.75-2.5l-28.5-28.5q-2.5-2.5-2.5-5.75t2.5-5.75l163-163-44-44Q288 22.5 288 16t4.75-11.25Q297.5 0 304 0h128q6.5 0 11.25 4.75T448 16z"/></svg>