<svg id="Layer_1" xmlns="http://www.w3.org/2000/svg" viewBox="206.3 133 450 164"><style>.st0{fill:#404040}.st1{fill:#bcbec0}.st2{fill:#0d4f9e}.st3{fill:#faea27}</style><path class="st0" d="M245 274.9c0-1.7.1-3.4.4-5 .3-1.7.8-3.1 1.6-4.4.8-1.3 1.9-2.3 3.3-3.1 1.4-.8 3.2-1.2 5.5-1.2.5 0 1 0 1.7.1.6 0 1.3.1 1.9.2.7.1 1.3.2 2 .4.6.1 1.2.3 1.8.5.3.1.5.3.7.5.1.2.2.4.1.8l-.4 1.6c-.1.2-.1.4-.3.5-.1.1-.4.1-.8.1-1-.1-2-.3-3.2-.4-1.1-.1-2.2-.2-3.3-.2-1.4 0-2.5.3-3.3.8-.8.5-1.5 1.2-1.9 2.1s-.7 1.9-.9 3.1c-.1 1.2-.2 2.4-.2 3.7 0 1.3.1 2.5.2 3.7.2 1.1.5 2.1.9 2.9.5.8 1.1 1.5 1.9 2s1.9.7 3.2.7c1.2 0 2.3-.1 3.3-.2s2.1-.2 3.2-.4c.4-.1.6 0 .8.1.1.1.2.3.3.6l.3 1.5c.2.6-.1 1-.7 1.3-.5.2-1 .4-1.7.5-.7.1-1.3.3-2 .4-.7.1-1.3.2-2 .2s-1.2.1-1.7.1c-2.2 0-4.1-.4-5.5-1.1-1.4-.8-2.5-1.8-3.3-2.9-.8-1.3-1.3-2.7-1.6-4.3-.1-1.9-.3-3.5-.3-5.2zM283.8 277.8c0 1.1-.1 2.3-.2 3.6-.1 1.2-.5 2.4-1.1 3.4s-1.5 1.9-2.6 2.5c-1.2.7-2.8 1-4.9 1-2 0-3.6-.3-4.6-1s-2-1.5-2.6-2.5c-.6-1-.9-2.2-1.1-3.4-.1-1.2-.2-2.4-.2-3.6 0-.9.1-2 .3-3.1.2-1.1.6-2.2 1.1-3.2.6-1 1.4-1.8 2.6-2.5 1.1-.7 2.7-1 4.6-1 1.9 0 3.4.3 4.6.9 1.2.6 2 1.4 2.7 2.3.6.9 1 2 1.2 3.2.1 1 .2 2.2.2 3.4zm-4.4.3c0-1.1-.1-2-.2-2.8-.1-.8-.3-1.4-.6-2-.3-.5-.8-.9-1.3-1.2-.5-.3-1.3-.4-2.2-.4-.9 0-1.5.1-2.1.4-.5.3-1 .7-1.3 1.2-.3.5-.5 1.2-.6 2-.1.8-.2 1.7-.2 2.7 0 1.1.1 2 .2 2.8.1.8.3 1.4.6 2 .3.5.7.9 1.2 1.2.5.3 1.2.4 2.1.4s1.6-.1 2.2-.4c.6-.3 1-.6 1.3-1.2.3-.5.5-1.2.6-2 .3-.7.3-1.7.3-2.7zM316.1 287.6c-.1.1-.3.2-.6.2h-2.9c-.5 0-.8-.3-.8-.8v-11.3c0-1.5-.2-2.5-.6-2.9-.4-.5-1.1-.8-2.1-.8-.4 0-.8.1-1.3.2s-.9.3-1.4.5c-.5.2-.9.4-1.3.6-.4.2-.8.4-1.1.6V287c0 .2-.1.4-.2.6-.1.1-.3.2-.6.2h-2.9c-.5 0-.7-.3-.7-.8v-11.5c0-1.2-.2-2.1-.6-2.7-.4-.6-1.1-.9-2.1-.9-.3 0-.7.1-1.2.2s-.9.3-1.4.4c-.5.2-.9.4-1.4.6-.5.2-.9.4-1.2.6V287c0 .5-.3.8-.8.8H288c-.5 0-.7-.3-.7-.8v-17.9c0-.5.2-.8.7-.8h2.8c.5 0 .8.3.8.8v1.2c.4-.3.8-.5 1.3-.8.5-.3.9-.5 1.5-.7.5-.2 1-.4 1.6-.5.5-.1 1.1-.2 1.6-.3 1.1 0 2.2.2 3.1.5.9.4 1.7 1.1 2.3 2.3 1-.7 2.1-1.4 3.3-2 1.2-.6 2.4-.8 3.7-.8s2.3.2 3.1.6c.8.4 1.4.9 1.8 1.6s.7 1.5.8 2.4c.1.9.2 1.9.2 2.8v12.1c.3-.2.3 0 .2.1zM348.7 287.6c-.1.1-.3.2-.6.2h-2.9c-.5 0-.8-.3-.8-.8v-11.3c0-1.5-.2-2.5-.6-2.9-.4-.5-1.1-.8-2.1-.8-.4 0-.8.1-1.3.2s-.9.3-1.4.5c-.5.2-.9.4-1.3.6-.4.2-.8.4-1.1.6V287c0 .2-.1.4-.2.6-.1.1-.3.2-.6.2h-2.9c-.5 0-.7-.3-.7-.8v-11.5c0-1.2-.2-2.1-.6-2.7-.4-.6-1.1-.9-2.1-.9-.3 0-.7.1-1.2.2s-.9.3-1.4.4c-.5.2-.9.4-1.4.6-.5.2-.9.4-1.2.6V287c0 .5-.3.8-.8.8h-2.9c-.5 0-.7-.3-.7-.8v-17.9c0-.5.2-.8.7-.8h2.8c.5 0 .8.3.8.8v1.2c.4-.3.8-.5 1.3-.8.5-.3.9-.5 1.5-.7.5-.2 1-.4 1.6-.5.5-.1 1.1-.2 1.6-.3 1.1 0 2.2.2 3.1.5.9.4 1.7 1.1 2.3 2.3 1-.7 2.1-1.4 3.3-2 1.2-.6 2.4-.8 3.7-.8s2.3.2 3.1.6c.8.4 1.4.9 1.8 1.6s.7 1.5.8 2.4c.1.9.2 1.9.2 2.8v12.1c.4-.2.3 0 .2.1zM358.3 263.2c0 .3 0 .6-.1.9-.1.3-.2.5-.3.7-.2.2-.4.4-.7.5-.3.1-.7.2-1.2.2s-1-.1-1.3-.2c-.3-.1-.5-.3-.7-.5s-.3-.5-.3-.7c-.1-.3-.1-.6-.1-.9 0-.6.2-1.2.5-1.6.3-.4.9-.7 1.9-.7 1 0 1.6.2 1.9.6.3.5.4 1 .4 1.7zM358 287c0 .2 0 .4-.1.5-.1.1-.3.2-.6.2h-2.8c-.5 0-.8-.3-.8-.8v-18c0-.5.3-.8.8-.8h2.8c.3 0 .5.1.6.2.1.1.1.3.1.5V287zM377.5 282c0 1.2-.2 2.2-.7 2.9-.5.8-1.1 1.4-1.8 1.9-.8.5-1.6.8-2.6 1-1 .2-2 .3-2.9.3s-2.1-.1-3.3-.2c-1.2-.1-2.1-.4-2.9-.7-.4-.2-.7-.3-.8-.5-.1-.2-.1-.5-.1-.8l.3-1.3c.1-.3.2-.5.3-.6.2-.1.4-.1.7 0 .4.1.9.1 1.4.2.5.1 1 .1 1.6.1.6 0 1 .1 1.5.1h1.2c1.3 0 2.2-.2 2.8-.5.6-.4.8-.9.8-1.7 0-.5 0-.8-.1-1.1-.1-.3-.3-.5-.5-.7-.2-.2-.6-.3-1-.5-.4-.1-.9-.2-1.6-.3-1-.1-1.9-.3-2.8-.5-.9-.2-1.7-.5-2.3-.9-.7-.4-1.2-1-1.6-1.6-.4-.7-.6-1.6-.6-2.7 0-2 .7-3.4 2.1-4.4 1.4-1 3.2-1.5 5.3-1.5h1.4c.5 0 1.1.1 1.6.2s1.1.2 1.6.3 1 .2 1.4.4c.7.3.9.7.8 1.2l-.3 1.4c-.1.3-.2.5-.3.5-.1.1-.4.1-.8 0-.9-.1-1.8-.2-2.8-.3-1-.1-1.9-.1-2.6-.1-1.3 0-2.1.2-2.5.5-.4.4-.6.9-.6 1.7 0 .8.3 1.3.8 1.5.5.2 1.4.5 2.6.6 1 .1 1.9.3 2.7.5.9.2 1.6.5 2.3 1 .7.4 1.2 1 1.6 1.7.5.8.7 1.7.7 2.9zM395.8 282c0 1.2-.2 2.2-.7 2.9-.5.8-1.1 1.4-1.8 1.9-.8.5-1.6.8-2.6 1-1 .2-2 .3-2.9.3-.9 0-2.1-.1-3.3-.2-1.2-.1-2.1-.4-2.9-.7-.4-.2-.7-.3-.8-.5-.1-.2-.1-.5-.1-.8l.3-1.3c.1-.3.2-.5.3-.6.2-.1.4-.1.7 0 .4.1.9.1 1.4.2s1 .1 1.6.1c.6 0 1 .1 1.5.1h1.2c1.3 0 2.2-.2 2.8-.5.6-.4.8-.9.8-1.7 0-.5 0-.8-.1-1.1s-.3-.5-.5-.7c-.2-.2-.6-.3-1-.5-.4-.1-.9-.2-1.6-.3-1-.1-1.9-.3-2.8-.5-.9-.2-1.7-.5-2.3-.9-.7-.4-1.2-1-1.6-1.6-.4-.7-.6-1.6-.6-2.7 0-2 .7-3.4 2.1-4.4 1.4-1 3.2-1.5 5.3-1.5h1.4c.5 0 1.1.1 1.6.2s1.1.2 1.6.3c.5.1 1 .2 1.4.4.7.3.9.7.8 1.2l-.3 1.4c-.1.3-.2.5-.3.5-.1.1-.4.1-.8 0-.9-.1-1.8-.2-2.8-.3s-1.9-.1-2.6-.1c-1.3 0-2.1.2-2.5.5-.4.4-.6.9-.6 1.7 0 .8.3 1.3.8 1.5.5.2 1.4.5 2.6.6 1 .1 1.9.3 2.7.5.9.2 1.6.5 2.3 1 .7.4 1.2 1 1.6 1.7.5.8.7 1.7.7 2.9zM404.6 263.2c0 .3 0 .6-.1.9-.1.3-.2.5-.3.7-.2.2-.4.4-.7.5-.3.1-.7.2-1.2.2s-1-.1-1.3-.2c-.3-.1-.5-.3-.7-.5s-.3-.5-.3-.7c-.1-.3-.1-.6-.1-.9 0-.6.2-1.2.5-1.6.3-.4.9-.7 1.9-.7 1 0 1.6.2 1.9.6.2.5.4 1 .4 1.7zm-.3 23.8c0 .2 0 .4-.1.5-.1.1-.3.2-.6.2h-2.8c-.5 0-.8-.3-.8-.8v-18c0-.5.3-.8.8-.8h2.8c.3 0 .5.1.6.2.1.1.1.3.1.5V287zM426 277.8c0 1.1-.1 2.3-.2 3.6-.1 1.2-.5 2.4-1.1 3.4s-1.5 1.9-2.6 2.5c-1.2.7-2.8 1-4.9 1-2 0-3.6-.3-4.6-1-1.1-.7-2-1.5-2.6-2.5-.6-1-.9-2.2-1.1-3.4-.1-1.2-.2-2.4-.2-3.6 0-.9.1-2 .3-3.1s.6-2.2 1.1-3.2c.6-1 1.4-1.8 2.6-2.5 1.1-.7 2.7-1 4.6-1 1.9 0 3.4.3 4.6.9 1.2.6 2 1.4 2.7 2.3.6.9 1 2 1.2 3.2.1 1 .2 2.2.2 3.4zm-4.4.3c0-1.1-.1-2-.2-2.8-.1-.8-.3-1.4-.6-2-.3-.5-.8-.9-1.3-1.2-.5-.3-1.3-.4-2.2-.4s-1.5.1-2.1.4c-.5.3-1 .7-1.3 1.2-.3.5-.5 1.2-.6 2-.1.8-.2 1.7-.2 2.7 0 1.1.1 2 .2 2.8.1.8.3 1.4.6 2 .3.5.7.9 1.2 1.2.5.3 1.2.4 2.1.4s1.6-.1 2.2-.4c.6-.3 1-.6 1.3-1.2.3-.5.5-1.2.6-2 .2-.7.3-1.7.3-2.7zM446.6 287.6c-.1.1-.3.2-.6.2h-2.9c-.5 0-.8-.3-.8-.8v-11.1c0-1.2-.2-2.1-.6-2.8-.4-.7-1.2-1.1-2.3-1.1-.4 0-.9.1-1.4.2-.5.1-1 .3-1.6.5l-1.5.6c-.5.2-.8.4-1.1.5v13.3c0 .5-.3.8-.8.8h-2.6c-.5 0-.8-.3-.8-.8v-17.9c0-.5.3-.8.8-.8h2.8c.5 0 .8.3.8.8v1.2h.2c.4-.3.8-.5 1.3-.8.5-.3 1.1-.5 1.7-.8l1.8-.6c.6-.1 1.3-.2 1.9-.2 1.4 0 2.4.2 3.2.6.8.4 1.4 1 1.8 1.7s.7 1.5.8 2.4c.1.9.2 1.9.2 2.9v11.5c-.1.2-.1.4-.3.5zM455 279.3c0 1 .1 1.9.3 2.5.2.7.5 1.2.9 1.6.4.4.9.7 1.5.8.6.2 1.3.2 2.1.2.7 0 1.6-.1 2.6-.2s1.9-.2 2.6-.3c.4-.1.6 0 .8 0 .1.1.2.3.3.7l.2 1.3c.1.3 0 .5 0 .7-.1.2-.3.4-.7.5-.4.2-.9.3-1.4.4-.5.1-1.1.2-1.7.3-.6.1-1.2.1-1.8.2-.6.1-1.1.1-1.6.1-1.9 0-3.4-.3-4.6-.8-1.1-.6-2-1.3-2.6-2.2-.6-.9-1-2-1.2-3.2-.2-1.2-.3-2.5-.3-3.8 0-1 .1-2 .2-3.2.1-1.2.5-2.3 1.1-3.4.6-1 1.4-1.9 2.6-2.6 1.1-.7 2.7-1.1 4.6-1.1 1.8 0 3.2.3 4.3.8s2 1.2 2.6 2.1c.6.8 1 1.8 1.3 2.9.2 1.1.4 2.2.4 3.2 0 .7-.1 1.3-.4 1.8-.3.5-.8.7-1.6.7H455zm3.9-7.8c-.7 0-1.4.1-1.8.3-.4.2-.9.5-1.2.9-.3.4-.5.9-.7 1.5-.1.6-.2 1.3-.3 2h7.8c0-.6-.1-1.2-.2-1.8-.1-.6-.3-1.1-.6-1.5-.3-.4-.7-.8-1.2-1.1-.3-.1-.8-.3-1.8-.3zM486.3 279.3c0 1 .1 1.9.3 2.5.2.7.5 1.2.9 1.6.4.4.9.7 1.5.8.6.2 1.3.2 2.1.2.7 0 1.6-.1 2.6-.2s1.9-.2 2.6-.3c.4-.1.6 0 .8 0 .1.1.2.3.3.7l.2 1.3c.1.3 0 .5 0 .7-.1.2-.3.4-.7.5-.4.2-.9.3-1.4.4-.5.1-1.1.2-1.7.3-.6.1-1.2.1-1.8.2-.6.1-1.1.1-1.6.1-1.9 0-3.4-.3-4.6-.8-1.1-.6-2-1.3-2.6-2.2-.6-.9-1-2-1.2-3.2-.2-1.2-.3-2.5-.3-3.8 0-1 .1-2 .2-3.2.1-1.2.5-2.3 1.1-3.4.6-1 1.4-1.9 2.6-2.6 1.1-.7 2.7-1.1 4.6-1.1 1.8 0 3.2.3 4.3.8s2 1.2 2.6 2.1c.6.8 1 1.8 1.3 2.9.2 1.1.4 2.2.4 3.2 0 .7-.1 1.3-.4 1.8-.3.5-.8.7-1.6.7h-10.5zm4-7.8c-.7 0-1.4.1-1.8.3-.5.2-.9.5-1.2.9-.3.4-.5.9-.7 1.5-.1.6-.2 1.3-.3 2h7.8c0-.6-.1-1.2-.2-1.8-.1-.6-.3-1.1-.6-1.5-.3-.4-.7-.8-1.2-1.1-.3-.1-1-.3-1.8-.3zM518.5 287.8h-2.8c-.3 0-.5-.1-.6-.2-.1-.1-.2-.3-.2-.6v-1.3h-.1c-.4.3-.9.5-1.4.8-.5.3-1.1.5-1.7.8l-1.8.6c-.6.1-1.2.2-1.9.2-1.4 0-2.4-.2-3.2-.6-.8-.4-1.4-.9-1.8-1.6-.4-.7-.7-1.5-.8-2.4-.1-.9-.2-1.9-.2-2.9v-11.7c0-.5.3-.8.8-.8h2.9c.5 0 .7.3.7.8V280c0 .6 0 1.2.1 1.6.1.5.2.9.4 1.2.2.3.5.6.9.8.4.2.9.3 1.5.3.4 0 .9-.1 1.4-.2.5-.1 1-.3 1.5-.5s1-.4 1.4-.6l1-.5V269c0-.2.1-.4.2-.6.1-.1.3-.2.6-.2h2.8c.5 0 .8.3.8.8v18c.3.5 0 .8-.5.8zM528.6 287c0 .5-.3.8-.8.8h-2.9c-.5 0-.8-.3-.8-.8v-17.9c0-.5.3-.8.8-.8h2.9c.5 0 .8.3.8.8v1.8l.1.1c.3-.3.7-.6 1.2-.9.5-.3 1-.6 1.5-.8.5-.3 1.1-.5 1.7-.7.6-.2 1.1-.4 1.6-.4.3-.1.5 0 .6 0 .2.1.3.3.3.6l.3 2.7v.6c-.1.1-.3.2-.7.3-.6.1-1.1.2-1.8.4-.6.1-1.2.3-1.8.5s-1.1.3-1.6.5-.9.3-1.3.5V287h-.1zM554.8 277.8c0 1.1-.1 2.3-.2 3.6-.1 1.2-.5 2.4-1.1 3.4s-1.5 1.9-2.6 2.5c-1.2.7-2.8 1-4.9 1-2 0-3.6-.3-4.6-1-1.1-.7-2-1.5-2.6-2.5-.6-1-.9-2.2-1.1-3.4-.1-1.2-.2-2.4-.2-3.6 0-.9.1-2 .3-3.1s.6-2.2 1.1-3.2c.6-1 1.4-1.8 2.6-2.5 1.2-.7 2.7-1 4.6-1 1.9 0 3.4.3 4.6.9 1.2.6 2 1.4 2.7 2.3.6.9 1 2 1.2 3.2.1 1 .2 2.2.2 3.4zm-4.5.3c0-1.1-.1-2-.2-2.8-.1-.8-.3-1.4-.6-2-.3-.6-.8-.9-1.3-1.2-.6-.3-1.3-.4-2.2-.4-.9 0-1.5.1-2.1.4-.5.3-1 .7-1.3 1.2-.3.5-.5 1.2-.6 2-.1.8-.2 1.7-.2 2.7 0 1.1.1 2 .2 2.8.1.8.3 1.4.6 2 .3.5.7.9 1.2 1.2.5.3 1.2.4 2.1.4.9 0 1.6-.1 2.2-.4.6-.3 1-.6 1.3-1.2.3-.6.5-1.2.6-2 .1-.9.3-1.7.3-2.7zM575.8 278c0 1.6-.1 3.1-.4 4.4-.2 1.3-.7 2.4-1.3 3.2-.6.9-1.4 1.5-2.4 2s-2.3.7-3.9.7c-.7 0-1.4-.1-2.3-.2-.9-.1-1.8-.4-2.7-.7v7c0 .2 0 .4-.1.6-.1.2-.3.2-.6.2h-2.8c-.3 0-.5-.1-.6-.2-.1-.1-.1-.3-.1-.6v-25.2c0-.5.3-.8.8-.8h2.8c.3 0 .5.1.6.2.1.1.1.3.1.6v1.2l.1.1c.3-.2.8-.5 1.3-.8.5-.3 1-.5 1.6-.8.6-.2 1.1-.4 1.7-.6.6-.2 1.2-.2 1.8-.2 1.3 0 2.4.2 3.2.7.8.5 1.5 1.2 2 2 .5.9.8 1.9 1 3.1.1 1.2.2 2.6.2 4.1zm-4.5-.1c0-1.3-.1-2.3-.2-3.1-.1-.8-.3-1.4-.6-1.8-.3-.4-.6-.7-1-.9-.4-.1-.8-.2-1.4-.2-.4 0-.9.1-1.4.2-.5.1-1 .3-1.5.5s-1 .4-1.4.6c-.4.2-.8.4-1.1.6v9.9c.9.3 1.7.4 2.5.5.7.1 1.4.1 2.1.1s1.3-.1 1.8-.3c.5-.2.9-.6 1.2-1.1s.5-1.2.7-2c.3-.7.3-1.7.3-3zM583.4 279.3c0 1 .1 1.9.3 2.5.2.7.5 1.2.9 1.6.4.4.9.7 1.5.8.6.2 1.3.2 2.1.2.7 0 1.6-.1 2.6-.2s1.9-.2 2.6-.3c.4-.1.6 0 .8 0 .1.1.2.3.3.7l.2 1.3c.1.3 0 .5 0 .7-.1.2-.3.4-.7.5-.4.2-.9.3-1.4.4-.5.1-1.1.2-1.7.3-.6.1-1.2.1-1.8.2-.6.1-1.1.1-1.6.1-1.9 0-3.4-.3-4.6-.8-1.1-.5-2-1.3-2.6-2.2-.6-.9-1-2-1.2-3.2-.2-1.2-.3-2.5-.3-3.8 0-1 .1-2 .2-3.2.1-1.2.5-2.3 1.1-3.4.6-1.1 1.4-1.9 2.6-2.6 1.1-.7 2.7-1.1 4.6-1.1 1.8 0 3.2.3 4.3.8s2 1.2 2.6 2.1c.6.8 1 1.8 1.3 2.9.2 1.1.4 2.2.4 3.2 0 .7-.1 1.3-.4 1.8-.3.5-.8.7-1.6.7h-10.5zm4.1-7.8c-.7 0-1.4.1-1.8.3-.5.2-.9.5-1.2.9-.3.4-.5.9-.7 1.5-.1.6-.2 1.3-.3 2h7.8c0-.6-.1-1.2-.2-1.8-.1-.6-.3-1.1-.6-1.5-.3-.4-.7-.8-1.2-1.1-.4-.1-1.1-.3-1.8-.3zM611.7 285.5c-1 .8-2.2 1.4-3.4 1.9s-2.6.7-3.9.7c-1.1 0-2-.1-2.7-.4-.7-.3-1.3-.7-1.7-1.2-.4-.5-.7-1.1-.9-1.8s-.3-1.5-.3-2.3c0-2.3.6-3.9 1.8-5.1 1.3-1.1 3.1-1.6 5.6-1.6h5.1v-1c0-.6-.1-1.1-.2-1.5-.1-.4-.3-.8-.7-1-.3-.3-.7-.5-1.3-.6-.5-.1-1.2-.2-2-.2h-1.2c-.5 0-.9.1-1.4.1s-1 .1-1.5.1c-.5.1-.9.1-1.3.1-.4.1-.7.1-.8 0-.1 0-.2-.2-.3-.5l-.4-1.5c-.1-.3 0-.5.1-.7.1-.2.4-.3.8-.5s.9-.3 1.5-.4l1.8-.3c.6-.1 1.2-.1 1.8-.2.6 0 1.1-.1 1.6-.1 1.7 0 3.1.2 4.1.5 1 .3 1.8.8 2.3 1.5.5.6.9 1.4 1 2.3.2.9.2 1.9.2 2.9v7.6c0 .4 0 .7.1.9 0 .2.1.4.2.5.1.1.2.2.4.3.2.1.4.1.8.1.3 0 .5.1.6.2.1.1.2.2.2.4v1.7c0 .5-.3.7-1 .8-.3.1-.6.1-1 .1s-.6.1-.9.1c-.9 0-1.7-.2-2.3-.5 0 .2-.5-.4-.8-1.4zm-.2-6.5h-4.9c-1 0-1.8.2-2.4.7-.6.5-.9 1.4-.9 2.7 0 .9.2 1.5.5 1.8.4.3 1 .5 1.9.5.4 0 .9-.1 1.4-.2.5-.1 1-.3 1.5-.4.5-.1 1-.4 1.5-.6.5-.2.9-.4 1.3-.7l.1-3.8z"/><g><path class="st1" d="M343.4 172.9s61.7-8 63.5-8.3c2.7-.4 5.1-1 7.3-1.6 5-1.4 9.7-3.4 13.7-6.3 3.9-2.7 7.5-6.5 11.1-10.7 2.3-2.7 4.6-6.1 7-9.5v-1.7c-2.7 3.9-5.3 7.5-8 10.4-3.6 3.9-7.3 7.3-11.1 9.7-3.9 2.6-8.3 4.4-13.2 5.6-2.2.6-4.4 1-7 1.4l-5.1.6c-.7.1-58 6.3-58 6.3l-.2 4.1z"/><path class="st1" d="M426.1 162.5c-3.9 2.3-8.3 3.9-13.3 4.9-2.1.4-4.4.8-7 1.1-1.6.2-3.1.3-4.6.4-.8.1-1.7.1-2.5.2-18.9 1.7-37.7 3.6-55.3 5.3v4.1c17.7-2.2 36.7-4.4 55.6-6.6.8-.1 1.7-.2 2.5-.3 1.6-.2 3.1-.3 4.6-.6 2.7-.4 5.1-.8 7.3-1.3 5.1-1.2 9.7-2.9 13.8-5.5 3.9-2.4 7.5-5.8 11.3-9.9 2.4-2.6 5-6.3 7.5-9.7v-1.4c-2.9 3.9-5.6 7.3-8.3 10.1-4 3.9-7.7 7-11.6 9.2"/><path class="st1" d="M436.9 161.5c-3.8 3.4-7.7 6.3-11.7 8.1-3.9 1.9-8.2 3.3-13.4 4.1-2.1.4-4.4.6-7 .9l-61.6 5.1v4.1L398 178l7-.8c2.7-.3 5-.7 7.1-1.1 5.3-1 9.8-2.5 13.8-4.6 4.1-2.1 8.2-5.6 12-9.3 2.6-2.5 5.1-5.6 7.6-9v-1.4c-2.7 3.9-5.6 7-8.6 9.7M422 182.4c-3.6 2-6.3 3.2-11.4 3.8-3.1.3-6.3.5-9.3.7-1.5.1-2.9.2-4.4.2-9.3.5-18.4 1.1-27.8 1.8l-25.7 1.8v4.1l26-2.4c8.5-.8 18.2-1.7 27.7-2.4l7-.5c2.7-.2 5-.4 7-.7 5.3-.7 9.7-1.8 13.8-3.3 4.3-1.6 8.3-4.1 12.4-7.1 3.7-2.7 8.7-8 8.7-8V169c-3.3 3.3-5.3 5.1-8.8 7.5-4.5 2.7-11.9 4.2-15.2 5.9"/><path class="st1" d="M423.3 190.2c-3.9 1.2-8.2 1.9-13.4 2.4-2.1.2-4.3.3-6.8.4l-6.8.3c-17.2.8-34.2 1.7-53 2.7v4.1c18-1.4 35.5-2.8 53.1-4.1l6.8-.5c2.7-.2 4.9-.4 7-.6 5.3-.6 9.7-1.5 13.7-2.8 4.4-1.4 8.7-3.4 12.8-6.1 2.9-1.9 6.1-4.3 9.1-7-3.4 2.9-6.8 3.6-9.9 5.6-4.1 2.4-8.2 4.3-12.6 5.6"/><path class="st1" d="M422.7 196.8c-3.9.9-8.1 1.5-13.4 1.9-2 .1-4.1.2-6.8.3l-6.8.2c-17.2.7-34.7 1.4-52.5 2.2v4.1c17.7-1.2 35-2.4 52.6-3.4l6.8-.4c2.7-.2 4.9-.3 6.8-.5 5.3-.5 9.7-1.2 13.6-2.3 4.4-1.2 8.8-2.9 13-5.1 3.2-1.7 6.3-3.8 9.7-6.3v-1.7c-3.6 2.6-7 4.8-10.4 6.5-4 2-8.2 3.5-12.6 4.5"/><path class="st1" d="M422.1 203.4c-3.9.7-8.1 1.2-13.3 1.5-2 .1-3.9.2-6.8.2l-58.7 1.6v4.1l52.1-2.8 6.8-.3c2.7-.1 4.8-.3 6.8-.4 5.3-.4 9.5-1 13.5-1.8 4.6-1 8.9-2.4 13.1-4.1 3.4-1.4 6.8-3.2 10.2-5.3v-1.7c-3.8 2.2-7.3 3.9-10.8 5.3-4.2 1.7-8.4 2.9-12.9 3.7"/><path class="st1" d="M421.6 210c-7.3 1-14.7 1.1-21.8 1.2-1.7 0-3.3 0-5 .1l-51.6.9v4.1L395 214c1.7-.1 3.3-.1 5-.2 7.3-.3 14.7-.6 22-1.8 4.6-.7 9.1-1.8 13.2-3.3 3.4-1.2 7-2.7 10.6-4.4v-1.6c-3.8 1.8-7.5 3.3-11.1 4.4-4.1 1.3-8.5 2.3-13.1 2.9M421.3 216.7c-6.8.6-13.7.6-20.4.6h-6.3c-17 .1-34 .2-51.3.4v4.1c16.5-.6 33.9-1.2 51.4-1.7 2.1-.1 4.1-.1 6.3-.2 6.8-.2 13.7-.4 20.6-1.1 4.8-.5 9.1-1.3 13.3-2.3 3.7-.9 7.3-2.1 11.1-3.6v-1.5c-3.9 1.4-7.7 2.6-11.4 3.4-4.3.8-8.7 1.5-13.3 1.9M421.1 223.2c-2.8.1-5.8.2-9.3.2h-3.9l-13.4-.3c-9-.1-18.2-.1-26.6-.1h-24.5v4.1l24.6-.7c8.5-.2 17.5-.4 26.6-.6l13.3-.2c3.7-.1 8.5-.2 13.3-.5 4.8-.3 9.1-.8 13.3-1.5 3.8-.6 7.5-1.4 11.4-2.4v-1.4c-3.9.9-7.8 1.7-11.6 2.2-4.3.6-8.6 1-13.2 1.2M407.7 229.5l-13.3-.1c-16.9-.2-33.8-.6-51-.9v4.1c16.5-.1 33.8-.2 51-.4l13.3-.2c4.4-.1 8.8-.2 13.3-.3 9.1-.3 17.2-1 24.9-2v-1.4c-7.6.8-15.9 1.3-24.9 1.3-4.5 0-9 0-13.3-.1M445.8 236.6L343.4 234v4h102.4zM436.6 169c-3.9 3.2-7 5.5-11.7 7.3-4.1 1.7-8.6 2.4-13.7 3.1-3.3.5-6.8 1.2-10 1.4-1.4.1-2.7.2-4.1.3l-53.9 3.9v4.1l54.1-5.3 7-.7c2.6-.3 4.9-.5 7-.9 5.3-.9 9.7-2.2 13.8-3.9 4.1-1.9 8.5-5 12.4-8.3 2.7-2.3 5.3-5.1 8.1-8.3v-1.5c-3.2 3.6-6 6.4-9 8.8M489.4 134.8s18.4 29.5 21.8 34.9c3.4 5.3 7.3 9.7 20.8 12.6 13.7 2.9 19.6 4.3 19.6 4.3v1.1s-8.6-1.9-19.9-4.4c-11.1-2.5-15.7-3.4-20.8-10.4-4.3-6-21.6-31.1-21.6-31.1v-7h.1zM489.4 168.5s16.8 17.7 21.6 22.7c5.1 5.3 11.7 7.3 20.9 9 8.7 1.6 19.7 3.4 19.7 3.4v1s-10.3-1.7-19.7-3.3c-9.2-1.6-15.7-2.5-20.9-7.3-4.8-4.4-21.6-20.2-21.6-20.2v-5.3z"/><path class="st1" d="M489.4 176.4s16 14.9 21.6 19.9c5.3 4.6 9.4 6.1 20.9 8.1 11.5 2.1 19.6 3.3 19.6 3.3v1.1s-10.4-1.7-19.7-3.2c-9.3-1.5-15.3-2.1-20.9-6.6-6.5-5.3-21.6-17.7-21.6-17.7v-4.9h.1z"/><path class="st1" d="M489.4 184.9s18.2 14.5 21.6 17 8 5.5 21.1 7.5c13 1.9 19.6 2.8 19.6 2.8v1.1s-11.8-1.7-19.6-2.7c-7.8-1-13.9-1.4-20.9-6.1-6.8-4.6-21.7-15.1-21.7-15.1v-4.5h-.1z"/><path class="st1" d="M489.4 193.1s18.2 12.2 21.7 14.2c3.4 1.9 7.5 5.1 20.9 6.8 13.4 1.7 19.6 2.5 19.6 2.5v1.1s-11-1.2-19.6-2.2c-8.6-.9-14.5-2.2-20.9-5.8-6.5-3.6-21.6-12.5-21.6-12.5v-4.1h-.1z"/><path class="st1" d="M489.4 201.2s16.2 8.8 21.6 11.6c6.1 3.1 11.4 4.6 20.9 5.6 9.4 1.1 19.6 2.2 19.6 2.2v1s-9.5-1-19.6-2c-10.1-1-13.7-1.4-20.9-4.6-6.5-2.9-21.6-10-21.6-10v-3.8z"/><path class="st1" d="M489.4 209.4s12.8 5.5 21.7 9c8.8 3.4 15.6 3.8 20.9 4.4 2.4.3 19.6 2.1 19.6 2.1v1s-10.3-.8-19.6-1.7c-9.3-.8-13.4-1.2-20.9-3.7-7.6-2.6-21.7-7.5-21.7-7.5v-3.6zM489.4 217.8s12.9 3.9 21.7 6.3c8.8 2.3 16.9 3.3 20.9 3.6 4.1.3 19.6 1.6 19.6 1.6v.9s-8.8-.6-19.6-1.4c-8.7-.6-15.8-1.3-20.9-2.4-5.8-1.3-21.6-5.1-21.6-5.1v-3.6l-.1.1zM489.4 226.2s10.5 1.8 21.7 3.7c8.3 1.4 19.6 2.3 20.9 2.3 1.2.1 19.6 1.3 19.6 1.3v1s-11.8-.6-19.6-1.1c-8.2-.5-16.4-1-20.9-1.4-10.3-1.1-21.6-2.5-21.6-2.5v-3.3h-.1zM489.4 234.8s16.7.6 21.7.7c5.1.1 40.6 1.6 40.6 1.6v1h-62.3v-3.3zM532 186.8c-15.1-3.3-18.4-8.8-21.1-12.2-2.5-3.4-21.6-31.3-21.6-31.3v6.3c.8 1 17 22.4 21.6 28.3 5.1 6.6 13.3 8.1 20.9 9.8 7.7 1.7 19.6 3.9 19.6 3.9v-.9c.3.1-15.5-3-19.4-3.9"/><path class="st1" d="M532 191.3c-12.4-2.4-17.4-6.3-21.1-11.1-3.7-4.8-21.6-28.5-21.6-28.5v6c.8.9 17.2 20.4 21.6 25.5 5.1 6 12.3 7.5 21.1 9 8.7 1.6 19.6 3.7 19.6 3.7v-.9c.1 0-12.5-2.4-19.6-3.7"/><path class="st1" d="M532 195.8c-12.9-2.5-15.5-4.6-20.9-10.5-3.4-3.8-20.9-24.5-21.6-25.3v5.6s16.4 17.5 21.6 22.6c6.8 6.8 13.4 7.3 21.1 8.6 7.6 1.4 19.6 3.6 19.6 3.6v-.9c-.1-.1-14.7-2.7-19.8-3.7"/><path class="st2" d="M385.9 177.8h89.8V238h-89.8z"/><path class="st3" d="M431.8 186.3h3.1l-2.6 2 1.1 3.1-2.6-1.9-2.4 1.9 1-3.1-2.6-2h3l1-3.1zM431.8 226.5h3.2l-2.5 1.9.9 3-2.4-1.8-2.5 1.8 1-3-2.6-1.9h3.2l.9-3zM441.7 223.8h3.2l-2.5 1.9 1 3.1-2.5-1.9-2.5 1.9 1-3.1-2.6-1.9h3.1l1-2.9zM441.7 189h3.2l-2.5 1.9 1 2.9-2.5-1.7-2.5 1.7 1-2.9-2.6-1.9h3.1l1-3zM449.1 196.3h3.2l-2.6 1.9 1 3.1-2.5-1.9-2.4 1.9 1-3.1-2.7-1.9h3.2l.9-2.8zM449.1 216.6h3.2l-2.6 1.9 1 2.9-2.5-1.7-2.4 1.7 1-2.9-2.7-1.9h3.2l.9-3zM451.9 206.4h3.2l-2.6 1.9 1 2.9-2.5-1.9-2.5 1.9 1-2.9-2.5-1.9h3l1-3zM421.6 189h3.2l-2.5 1.9.9 3.1-2.4-1.9-2.6 1.9 1.1-3.1-2.6-1.9h3.2l.9-2.9zM414.5 196.4h3.2l-2.5 1.9.9 3-2.5-1.9-2.5 1.9 1-3-2.6-1.9h3.2l.9-2.9zM411.9 206.4h3.1l-2.5 1.9 1 2.9-2.6-1.8-2.4 1.8.9-2.9-2.6-1.9h3.2l.9-3zM414.5 216.6h3.2l-2.5 1.9.9 3-2.5-1.8-2.5 1.8 1-3-2.6-1.9h3.2l.9-2.9zM421.8 223.8h3.1l-2.5 2 .9 3-2.5-1.9-2.4 1.9 1-3-2.6-2h3.1l.9-2.9z"/></g></svg>