<svg id="Layer_1" xmlns="http://www.w3.org/2000/svg" viewBox="-72 338.9 450 165"><style>.st0{fill:#404040}.st1{fill:#bcbec0}.st2{fill:#0d4f9e}.st3{fill:#faea27}</style><path class="st0" d="M-22 486.2c0 1 .1 1.9.3 2.5.2.7.5 1.2.9 1.6s.9.7 1.5.8c.6.2 1.3.2 2.1.2.7 0 1.6-.1 2.6-.2s1.9-.2 2.6-.3c.4-.1.6 0 .8 0 .1.1.2.3.3.7l.2 1.3c.1.3 0 .5 0 .7-.1.2-.3.4-.7.5-.4.2-.9.3-1.4.4s-1.1.2-1.7.3-1.2.1-1.8.2c-.6.1-1.1.1-1.6.1-1.9 0-3.5-.3-4.6-.8-1.1-.6-2-1.3-2.6-2.2s-1-2-1.2-3.2c-.1-1.2-.2-2.4-.2-3.7 0-1 .1-2 .2-3.2s.5-2.3 1.1-3.4c.6-1 1.4-1.9 2.6-2.6 1.1-.7 2.7-1.1 4.6-1.1 1.8 0 3.2.3 4.3.8 1.1.5 2 1.2 2.6 2.1.6.8 1 1.8 1.3 2.9.2 1.1.4 2.2.4 3.2 0 .7-.1 1.3-.4 1.8s-.8.7-1.6.7l-10.6-.1zm4-7.8c-.7 0-1.4.1-1.8.3-.4.2-.9.5-1.2.9s-.5.9-.7 1.5c-.1.6-.2 1.3-.3 2h7.9c0-.6-.1-1.2-.2-1.8-.1-.6-.3-1.1-.6-1.5-.3-.4-.7-.8-1.2-1.1-.4-.1-1.1-.3-1.9-.3zM-4.9 494.8c-.4 0-.7-.1-.8-.2-.1-.1-.2-.4-.2-.6v-18c0-.3.1-.5.2-.6s.4-.2.7-.2h8.5c2.3 0 4 .5 5.1 1.4 1.1 1 1.6 2.3 1.6 3.9 0 .5-.1 1.2-.4 2s-.9 1.4-1.9 2c.6.2 1.1.6 1.4.9.4.4.7.8.9 1.2s.4.8.4 1.3c.1.4.1.8.1 1.2 0 .9-.2 1.7-.5 2.4-.4.7-.8 1.3-1.5 1.8-.6.5-1.3.9-2.2 1.2-.8.3-1.7.4-2.6.4l-8.8-.1zm10.6-14c0-.3 0-.5-.1-.8-.1-.2-.2-.5-.5-.7-.2-.2-.5-.4-.9-.5s-.8-.2-1.3-.2h-4.5v4.3h4.8c.8 0 1.4-.2 1.8-.7.5-.2.7-.7.7-1.4zm.6 7.9c0-.7-.2-1.2-.6-1.8-.4-.5-1.1-.8-2.1-.8h-5.1v5h4.7c.6 0 1.2-.1 1.6-.2.4-.2.7-.4 1-.6.2-.2.4-.5.5-.8v-.8zM31.8 484.9c0 1.6-.1 3.1-.4 4.4-.2 1.3-.7 2.4-1.3 3.2-.6.9-1.4 1.5-2.4 2s-2.3.7-3.9.7c-.7 0-1.4-.1-2.3-.2s-1.8-.4-2.7-.7v7c0 .2 0 .4-.1.6s-.3.2-.6.2h-2.8c-.3 0-.5-.1-.6-.2s-.1-.3-.1-.6v-25.4c0-.5.3-.8.8-.8h2.8c.3 0 .5.1.6.2s.1.3.1.6v1.2l.1.1c.3-.2.8-.5 1.3-.8s1-.5 1.6-.8c.6-.2 1.1-.4 1.7-.6s1.2-.2 1.8-.2c1.3 0 2.4.2 3.2.7.9.5 1.5 1.2 2 2 .5.9.8 1.9 1 3.1.1 1.4.2 2.8.2 4.3zm-4.5-.1c0-1.3-.1-2.3-.2-3.1-.1-.8-.3-1.4-.6-1.8-.3-.4-.6-.7-1-.9-.4-.1-.8-.2-1.4-.2-.4 0-.9.1-1.4.2s-1 .3-1.5.5-1 .4-1.4.6-.8.4-1.1.6v10c.9.3 1.7.4 2.5.5.7.1 1.4.1 2.1.1s1.3-.1 1.8-.3c.5-.2.9-.6 1.2-1.1s.5-1.2.7-2c.2-.8.3-1.8.3-3.1zM52.3 484.7c0 1.1-.1 2.3-.2 3.6-.1 1.2-.5 2.4-1.1 3.4s-1.5 1.9-2.6 2.5c-1.2.7-2.8 1-4.9 1-2 0-3.6-.3-4.7-1s-2-1.5-2.6-2.5-.9-2.2-1.1-3.4c-.1-1.2-.2-2.4-.2-3.6 0-.9.1-2 .3-3.1s.6-2.2 1.1-3.2c.6-1 1.4-1.8 2.6-2.5 1.1-.7 2.7-1 4.6-1s3.5.3 4.6.9c1.2.6 2 1.4 2.7 2.3.6.9 1 2 1.2 3.2.2 1 .3 2.2.3 3.4zm-4.4.3c0-1.1-.1-2-.2-2.8-.1-.8-.3-1.4-.6-2-.3-.5-.8-.9-1.3-1.2-.5-.3-1.4-.4-2.3-.4s-1.5.1-2.1.4c-.5.3-1 .7-1.3 1.2s-.5 1.2-.6 2-.2 1.7-.2 2.7c0 1.1.1 2 .2 2.8.1.8.3 1.4.6 2 .3.5.7.9 1.2 1.2.5.3 1.2.4 2.1.4s1.6-.1 2.2-.4 1-.6 1.3-1.2c.3-.5.5-1.2.6-2 .3-.7.4-1.7.4-2.7zM73.3 494c0 .5-.3.8-.8.8h-2.9c-.5 0-.8-.3-.8-.8v-15.2h-8.3V494c0 .2-.1.4-.2.5s-.3.2-.6.2h-2.8c-.5 0-.8-.3-.8-.8v-18.1c0-.5.3-.8.8-.8h15.6c.3 0 .5.1.6.2.1.1.2.3.2.6V494zM81.7 486.2c0 1 .1 1.9.3 2.5.2.7.5 1.2.9 1.6.4.4.9.7 1.5.8.6.2 1.3.2 2.1.2.7 0 1.6-.1 2.6-.2s1.9-.2 2.6-.3c.4-.1.6 0 .8 0 .1.1.2.3.3.7l.2 1.3c.1.3 0 .5 0 .7-.1.2-.3.4-.7.5-.4.2-.9.3-1.4.4s-1.1.2-1.7.3c-.6.1-1.2.1-1.8.2s-1.1.1-1.6.1c-1.9 0-3.5-.3-4.6-.8-1.1-.6-2-1.3-2.6-2.2s-1-2-1.2-3.2-.3-2.5-.3-3.8c0-1 .1-2 .2-3.2s.5-2.3 1.1-3.4c.6-1 1.4-1.9 2.6-2.6 1.1-.7 2.7-1.1 4.6-1.1 1.8 0 3.2.3 4.3.8s2 1.2 2.6 2.1c.6.8 1 1.8 1.3 2.9.2 1.1.4 2.2.4 3.2 0 .7-.1 1.3-.4 1.8-.3.5-.8.7-1.6.7H81.7zm4-7.8c-.7 0-1.4.1-1.8.3-.4.2-.9.5-1.2.9-.3.4-.5.9-.7 1.5-.1.6-.2 1.3-.3 2h7.9c0-.6-.1-1.2-.2-1.8s-.3-1.1-.6-1.5c-.3-.4-.7-.8-1.2-1.1-.4-.1-1.1-.3-1.9-.3zM97.8 476.1c0-.3.1-.5.2-.7.1-.1.3-.2.7-.2h2.6c.4 0 .6.1.7.2.1.2.2.4.2.6v11.7h.1l5.2-7.1 3.6-4.7c.2-.2.3-.4.5-.5s.5-.2.9-.2h2.1c.3 0 .5.1.7.3.1.2.2.4.2.6V494c0 .6-.3.8-.9.8h-2.5c-.6 0-.9-.3-.9-.8v-12.2c-.9 1.3-1.9 2.5-2.8 3.8s-1.9 2.5-2.8 3.8l-1.8 2.4-1.8 2.4c-.2.2-.3.4-.5.5-.2.1-.5.2-.9.2h-1.7c-.3 0-.5-.1-.7-.2-.1-.1-.2-.3-.2-.6v-18h-.2zm8.8-2.7c-1.3 0-2.6-.3-3.8-1-1.2-.7-2.2-1.7-2.8-3.1-.1-.2-.2-.4-.3-.7-.1-.2 0-.5.2-.6l1.1-.9c.2-.2.4-.2.6-.1.1.1.3.2.5.4.8 1 1.5 1.7 2.2 2.1.7.5 1.5.7 2.5.7.5 0 .9-.1 1.2-.2.4-.1.7-.3 1-.5s.7-.5 1-.9c.3-.3.7-.8 1.2-1.2.3-.4.7-.4 1-.2l1.1.7c.3.2.4.4.3.6-.1.3-.2.5-.3.8-.7 1.4-1.7 2.5-2.8 3.2-1.3.5-2.6.9-3.9.9zM134.4 493c.1.3.1.5 0 .7s-.3.4-.7.5c-.8.3-1.7.6-2.9.7-1.1.1-2.2.2-3.2.2-1.9 0-3.4-.3-4.5-.8s-2-1.3-2.6-2.2-1-2-1.2-3.3c-.2-1.2-.3-2.5-.3-3.9 0-1.2.1-2.4.3-3.7.2-1.2.6-2.3 1.2-3.2.6-.9 1.5-1.7 2.6-2.3s2.6-.9 4.5-.9h1.5c.5 0 1.1.1 1.6.2s1.1.2 1.6.3 1 .3 1.4.5c.5.2.7.6.6 1.1l-.3 1.6c-.1.3-.2.5-.4.5-.2.1-.5.1-.8 0-.8-.1-1.7-.2-2.5-.2-.9-.1-1.6-.1-2.3-.1-1.6 0-2.8.5-3.4 1.4-.6.9-1 2.5-1 4.7 0 1.2.1 2.3.2 3.1.1.8.4 1.5.7 2 .3.5.8.9 1.3 1.1s1.2.3 2 .3c.6 0 1.4 0 2.4-.1s1.9-.2 2.7-.3c.3-.1.6-.1.7 0 .2.1.3.3.3.6l.5 1.5zM141.7 494.1c0 .2 0 .4-.1.5-.1.1-.3.2-.6.2h-3c-.5 0-.7-.2-.7-.7v-18.2c0-.5.2-.7.7-.7h3c.3 0 .5.1.6.2.1.1.1.3.1.5v7.1h2c.4 0 .7 0 1.1-.1.3-.1.6-.2.9-.4.3-.2.5-.5.8-.9.3-.4.5-.9.7-1.5l1.6-4.3c.1-.2.2-.4.4-.5s.4-.1.7-.1h2.4c.4 0 .6.1.7.2.1.2.1.4 0 .6l-1.4 4.2c-.4 1.3-.9 2.2-1.4 3-.5.7-1.1 1.2-1.8 1.4.9.3 1.6.8 2.1 1.4s.9 1.4 1.2 2.5l1.8 5.3c.1.2.1.4 0 .6-.1.2-.3.3-.7.3h-2.7c-.3 0-.5 0-.7-.1-.2-.1-.3-.2-.4-.5l-1.6-4.6c-.4-1.2-1-2-1.7-2.4-.7-.4-1.4-.6-2.2-.6h-2.1v7.6h.3zM169.3 492.5c-1 .8-2.2 1.4-3.4 1.9-1.3.5-2.6.7-3.9.7-1.1 0-2-.1-2.7-.4-.7-.3-1.3-.7-1.7-1.2s-.7-1.1-.9-1.8c-.2-.7-.3-1.5-.3-2.3 0-2.3.6-4 1.8-5.1 1.3-1.1 3.1-1.6 5.7-1.6h5.1v-1c0-.6-.1-1.1-.2-1.5-.1-.4-.3-.8-.7-1-.3-.3-.7-.5-1.3-.6-.5-.1-1.2-.2-2-.2h-1.2c-.5 0-.9.1-1.4.1s-1 .1-1.5.1c-.5.1-.9.1-1.3.1-.4.1-.7.1-.8 0-.1 0-.2-.2-.3-.5l-.4-1.5c-.1-.3 0-.5.1-.7s.4-.3.8-.5.9-.3 1.5-.4l1.8-.3c.6-.1 1.2-.1 1.8-.2.6 0 1.1-.1 1.6-.1 1.7 0 3.1.2 4.1.5s1.8.8 2.3 1.5c.5.6.9 1.4 1 2.3.2.9.2 1.9.2 3v7.7c0 .4 0 .7.1.9 0 .2.1.4.2.5.1.1.2.2.4.3s.4.1.8.1c.3 0 .5.1.6.2.1.1.2.2.2.4v1.7c0 .5-.3.7-1 .8-.3.1-.6.1-1 .1s-.6.1-.9.1c-.9 0-1.7-.2-2.3-.5-.3 0-.6-.6-.9-1.6zm-.3-6.6h-4.9c-1 0-1.8.2-2.4.7-.6.5-.9 1.4-.9 2.7 0 .9.2 1.5.5 1.8.4.3 1 .5 1.9.5.4 0 .9-.1 1.4-.2s1-.3 1.5-.4l1.5-.6c.5-.2.9-.4 1.3-.7l.1-3.8zM194 494.1c0 .2 0 .4-.1.5s-.3.2-.6.2h-3c-.5 0-.7-.2-.7-.7v-18.2c0-.5.2-.7.7-.7h3c.3 0 .5.1.6.2s.1.3.1.5v7.1h2c.4 0 .7 0 1.1-.1.3-.1.6-.2.9-.4.3-.2.5-.5.8-.9.3-.4.5-.9.7-1.5l1.6-4.3c.1-.2.2-.4.4-.5.2-.1.4-.1.7-.1h2.4c.4 0 .6.1.7.2.1.2.1.4 0 .6l-1.4 4.2c-.4 1.3-.9 2.2-1.4 3-.5.7-1.1 1.2-1.8 1.4.9.3 1.6.8 2.1 1.4s.9 1.4 1.2 2.5l1.8 5.3c.1.2.1.4 0 .6-.1.2-.3.3-.7.3h-2.7c-.3 0-.5 0-.7-.1-.2-.1-.3-.2-.4-.5l-1.6-4.6c-.4-1.2-1-2-1.7-2.4-.7-.4-1.4-.6-2.2-.6h-2.1v7.6h.3zM226.1 484.7c0 1.1-.1 2.3-.2 3.6-.1 1.2-.5 2.4-1.1 3.4s-1.5 1.9-2.6 2.5c-1.2.7-2.8 1-4.9 1-2 0-3.6-.3-4.7-1s-2-1.5-2.6-2.5c-.6-1-.9-2.2-1.1-3.4-.1-1.2-.2-2.4-.2-3.6 0-.9.1-2 .3-3.1s.6-2.2 1.1-3.2c.6-1 1.4-1.8 2.6-2.5s2.7-1 4.6-1c1.9 0 3.5.3 4.6.9 1.2.6 2 1.4 2.7 2.3.6.9 1 2 1.2 3.2.2 1 .3 2.2.3 3.4zm-4.4.3c0-1.1-.1-2-.2-2.8-.1-.8-.3-1.4-.6-2-.3-.6-.8-.9-1.3-1.2-.6-.3-1.3-.4-2.2-.4s-1.5.1-2.1.4c-.5.3-1 .7-1.3 1.2s-.5 1.2-.6 2c-.1.8-.2 1.7-.2 2.7 0 1.1.1 2 .2 2.8.1.8.3 1.4.6 2 .3.5.7.9 1.2 1.2.5.3 1.2.4 2.1.4.9 0 1.6-.1 2.2-.4.6-.3 1-.6 1.3-1.2.3-.6.5-1.2.6-2 .1-.8.3-1.7.3-2.7zM246.3 483.5l-1.8 3.4c-.4.7-.7 1.4-1.1 2.1-.3.7-.7 1.4-1.2 2.2-.2.5-.6.7-1.2.7h-1.4c-.4 0-.6-.1-.8-.2-.2-.1-.3-.3-.4-.5-.4-.7-.7-1.3-1.1-1.9-.3-.6-.7-1.2-1-1.8-.3-.6-.7-1.3-1-2-.3-.7-.7-1.4-1-2h-.1V494c0 .5-.3.8-.9.8h-2.5c-.6 0-.8-.3-.8-.8v-18c0-.5.3-.8.8-.8h2.3c.4 0 .7.1.9.2.2.1.3.3.5.5.4.8.8 1.5 1.3 2.3.4.8.8 1.5 1.2 2.3.6 1.1 1.2 2.2 1.7 3.3s1.1 2.2 1.7 3.3l3.1-5.9 2.8-5.3c.1-.2.3-.4.5-.5.2-.1.5-.2.9-.2h2.1c.5 0 .8.3.8.8v18c0 .5-.3.8-.8.8h-2.5c-.6 0-.9-.3-.9-.8v-10.5h-.1zM254.8 476.1c0-.3.1-.5.2-.7.1-.1.3-.2.7-.2h2.6c.4 0 .6.1.7.2.1.2.2.4.2.6v11.7h.1l5.2-7.1 3.6-4.7c.2-.2.3-.4.5-.5.2-.1.5-.2.9-.2h2.1c.3 0 .5.1.7.3.1.2.2.4.2.6V494c0 .6-.3.8-.9.8h-2.5c-.6 0-.9-.3-.9-.8v-12.2c-.9 1.3-1.9 2.5-2.8 3.8-.9 1.3-1.9 2.5-2.8 3.8l-1.8 2.4-1.8 2.4c-.2.2-.3.4-.5.5-.2.1-.5.2-.9.2h-1.7c-.3 0-.5-.1-.7-.2-.1-.1-.2-.3-.2-.6v-18h-.2zM291.5 493c.1.3.1.5 0 .7s-.3.4-.7.5c-.8.3-1.7.6-2.9.7-1.1.1-2.2.2-3.2.2-1.9 0-3.4-.3-4.5-.8-1.1-.6-2-1.3-2.6-2.2s-1-2-1.2-3.3c-.2-1.2-.3-2.5-.3-3.9 0-1.2.1-2.4.3-3.7.2-1.2.6-2.3 1.2-3.2.6-.9 1.5-1.7 2.6-2.3s2.6-.9 4.5-.9h1.5c.5 0 1.1.1 1.6.2s1.1.2 1.6.3 1 .3 1.4.5c.5.2.7.6.6 1.1l-.3 1.6c-.1.3-.2.5-.4.5-.2.1-.5.1-.8 0-.8-.1-1.7-.2-2.5-.2-.9-.1-1.6-.1-2.3-.1-1.6 0-2.8.5-3.4 1.4-.6.9-1 2.5-1 4.7 0 1.2.1 2.3.2 3.1.1.8.4 1.5.7 2 .3.5.8.9 1.3 1.1s1.2.3 2 .3c.6 0 1.4 0 2.4-.1s1.9-.2 2.7-.3c.3-.1.6-.1.7 0 .2.1.3.3.3.6l.5 1.5zM294.4 476.1c0-.3.1-.5.2-.7.1-.1.3-.2.7-.2h2.6c.4 0 .6.1.7.2.1.2.2.4.2.6v11.7h.1l5.2-7.1 3.6-4.7c.2-.2.3-.4.5-.5.2-.1.5-.2.9-.2h2.1c.3 0 .5.1.7.3.1.2.2.4.2.6V494c0 .6-.3.8-.9.8h-2.7c-.6 0-.9-.3-.9-.8v-12.2c-.9 1.3-1.9 2.5-2.8 3.8-.9 1.3-1.9 2.5-2.8 3.8l-1.8 2.4-1.8 2.4c-.2.2-.3.4-.5.5-.2.1-.5.2-.9.2h-1.7c-.3 0-.5-.1-.7-.2-.1-.1-.2-.3-.2-.6v-18zM331.5 475.2c.4 0 .6.1.8.2.1.1.2.3.2.6v18c0 .5-.3.8-1 .8H329c-.3 0-.6-.1-.7-.2s-.2-.3-.2-.6v-6.8h-4c-.7.1-1.3.3-1.7.7-.5.4-.9 1.1-1.3 2.3l-1.3 3.9c-.1.3-.2.5-.4.7-.2.1-.4.2-.8.2H316c-.4 0-.6-.1-.7-.2s-.1-.4 0-.7l1.4-4.3c.3-.8.6-1.5.9-2.1s.8-1.1 1.4-1.4c-.6-.2-1.1-.5-1.4-.9-.4-.4-.7-.8-.9-1.2-.2-.4-.4-.9-.4-1.4s-.1-.9-.1-1.4c0-1 .2-1.9.6-2.7.4-.8.9-1.4 1.5-1.9s1.4-.9 2.3-1.2c.9-.3 1.8-.4 2.7-.4h8.2zm-11.1 6.1c0 .8.2 1.4.7 1.8s1.3.6 2.4.6h4.6v-5h-4.4c-1 0-1.7.2-2.4.6-.6.6-.9 1.2-.9 2z"/><g><path class="st1" d="M65.1 379s62.2-8.1 64-8.4c2.7-.4 5.1-1 7.3-1.6 5-1.4 9.7-3.5 13.8-6.3 3.9-2.7 7.6-6.5 11.2-10.8 2.3-2.7 4.7-6.2 7-9.6v-1.7c-2.7 4-5.3 7.5-8 10.5-3.6 4-7.4 7.4-11.2 9.8-4 2.6-8.4 4.5-13.3 5.7-2.2.6-4.5 1-7.1 1.4-1.7.2-3.5.4-5.2.6-.7.1-58.4 6.3-58.4 6.3l-.1 4.1z"/><path class="st1" d="M148.5 368.5c-3.9 2.3-8.4 3.9-13.4 4.9-2.1.4-4.4.8-7.1 1.1-1.6.2-3.1.3-4.7.4-.8.1-1.7.1-2.5.2-19.1 1.7-38 3.6-55.8 5.3v4.2c17.9-2.2 37-4.5 56.1-6.7.8-.1 1.7-.2 2.5-.3 1.6-.2 3.1-.3 4.7-.6 2.7-.4 5.1-.8 7.3-1.3 5.2-1.2 9.8-3 13.9-5.5 4-2.4 7.6-5.8 11.4-10 2.4-2.6 5-6.3 7.5-9.7v-1.4c-2.9 4-5.7 7.3-8.4 10.2-3.8 3.9-7.6 7-11.5 9.2"/><path class="st1" d="M159.4 367.5c-3.8 3.5-7.8 6.3-11.8 8.2-3.9 1.9-8.3 3.3-13.5 4.1-2.1.4-4.4.6-7 .9L65 385.9v4.1l55.2-5.9 7.1-.8c2.7-.3 5-.7 7.2-1.1 5.3-1 9.9-2.5 13.9-4.6 4.1-2.1 8.3-5.6 12.1-9.4 2.6-2.5 5.1-5.7 7.7-9.1v-1.4c-2.9 3.9-5.8 7.1-8.8 9.8"/><path class="st1" d="M144.4 388.6c-3.6 2-6.3 3.2-11.5 3.8-3.1.3-6.3.5-9.4.7-1.5.1-3 .2-4.5.2-9.4.5-18.6 1.1-28 1.8l-25.9 1.8v4.1l26.2-2.4c8.5-.8 18.3-1.7 27.9-2.4l7-.5c2.7-.2 5-.4 7-.7 5.3-.7 9.8-1.8 13.9-3.3 4.3-1.6 8.4-4.2 12.5-7.2 3.7-2.7 8.8-8 8.8-8.1V375c-3.3 3.3-5.3 5.1-8.9 7.6-4.4 2.7-11.8 4.2-15.1 6"/><path class="st1" d="M145.7 396.4c-3.9 1.2-8.3 1.9-13.5 2.4-2.1.2-4.3.3-6.9.4l-6.9.3c-17.3.8-34.4 1.7-53.4 2.7v4.1c18.1-1.4 35.8-2.8 53.5-4.1l6.9-.5c2.7-.2 4.9-.4 7-.6 5.3-.6 9.8-1.5 13.8-2.8 4.4-1.4 8.8-3.5 12.9-6.1 3-1.9 6.1-4.3 9.2-7v-.1c-3.5 3-6.8 3.6-10 5.7-4 2.4-8.2 4.3-12.6 5.6"/><path class="st1" d="M145.1 403.1c-3.9.9-8.2 1.5-13.5 1.9-2 .1-4.2.2-6.8.3l-6.9.2c-17.3.7-34.9 1.4-52.9 2.2v4.1c17.8-1.2 35.3-2.4 53-3.5l6.9-.4c2.7-.2 4.9-.3 6.9-.5 5.3-.5 9.7-1.2 13.7-2.3 4.5-1.2 8.9-2.9 13.1-5.1 3.2-1.7 6.4-3.8 9.7-6.3V392c-3.6 2.6-7 4.8-10.5 6.5-4 2-8.3 3.6-12.7 4.6"/><path class="st1" d="M144.5 409.7c-4 .7-8.2 1.2-13.4 1.5-2 .1-4 .2-6.8.2L65.1 413v4.1l52.5-2.8 6.8-.3c2.7-.1 4.8-.3 6.8-.4 5.3-.4 9.6-1 13.6-1.8 4.6-1 9-2.4 13.2-4.2 3.4-1.4 6.8-3.2 10.3-5.4v-1.6c-3.8 2.2-7.3 4-10.9 5.4-4.1 1.7-8.4 2.9-12.9 3.7"/><path class="st1" d="M144 416.4c-7.3 1-14.8 1.1-22 1.2-1.7 0-3.3 0-5 .1l-52 .9v4.1l52.1-2.3c1.7-.1 3.3-.1 5-.2 7.3-.3 14.8-.6 22.2-1.8 4.7-.7 9.2-1.8 13.3-3.3 3.5-1.2 7.1-2.7 10.7-4.5V409c-3.8 1.8-7.6 3.3-11.2 4.4-4.1 1.4-8.5 2.4-13.1 3M143.6 423.1c-6.8.6-13.8.6-20.5.6h-6.3c-17.2.1-34.3.2-51.7.4v4.1c16.6-.6 34.2-1.2 51.8-1.7 2.1-.1 4.2-.1 6.3-.2 6.8-.2 13.8-.4 20.7-1.1 4.8-.5 9.2-1.3 13.4-2.3 3.7-.9 7.4-2.1 11.2-3.6v-1.5c-3.9 1.4-7.8 2.6-11.5 3.4-4.3.8-8.7 1.5-13.4 1.9M143.4 429.7c-2.8.1-5.9.2-9.4.2h-3.9l-13.5-.3H65.1v4l24.8-.7c8.5-.2 17.7-.4 26.8-.6l13.4-.2c3.7-.1 8.5-.2 13.4-.5 4.8-.3 9.2-.8 13.4-1.5 3.8-.6 7.6-1.4 11.5-2.4v-1.4c-4 .9-7.9 1.7-11.7 2.2-4.3.6-8.6 1-13.3 1.2M129.9 436l-13.4-.1c-17-.2-34.1-.6-51.4-.9v4.1c16.6-.1 34.1-.2 51.4-.4l13.4-.2 13.4-.3c9.2-.3 17.4-1 25.1-2v-1.4c-7.7.8-16 1.3-25.1 1.3-4.5 0-9 0-13.4-.1M168.4 443.2l-103.3-2.6v4h103.3zM159.1 375.1c-3.9 3.2-7 5.5-11.8 7.4-4.2 1.7-8.7 2.4-13.8 3.1-3.3.5-6.8 1.2-10.1 1.4-1.4.1-2.7.2-4.1.3l-54.3 4v4.1l54.5-5.3 7.1-.7c2.6-.3 4.9-.5 7.1-.9 5.3-.9 9.8-2.2 13.9-4 4.2-1.9 8.5-5 12.5-8.4 2.7-2.3 5.3-5.2 8.2-8.4v-1.5c-3.4 3.6-6.2 6.5-9.2 8.9M212.3 340.6s18.6 29.7 22 35.2c3.4 5.4 7.3 9.8 21 12.7 13.8 2.9 19.7 4.3 19.7 4.3v1.1s-8.7-1.9-20-4.4c-11.2-2.5-15.8-3.4-21-10.5-4.3-6-21.8-31.3-21.8-31.3v-7.1h.1zM212.3 374.5s16.9 17.8 21.8 22.9c5.2 5.4 11.8 7.4 21.1 9.1 8.8 1.6 19.9 3.4 19.9 3.4v1s-10.4-1.7-19.9-3.3c-9.3-1.6-15.8-2.5-21.1-7.4-4.8-4.4-21.8-20.4-21.8-20.4v-5.3z"/><path class="st1" d="M212.3 382.5s16.1 15 21.8 20.1c5.3 4.7 9.5 6.2 21.1 8.2 11.6 2.1 19.8 3.3 19.8 3.3v1.1s-10.5-1.7-19.9-3.2-15.4-2.1-21.1-6.7c-6.5-5.3-21.8-17.9-21.8-17.9l.1-4.9z"/><path class="st1" d="M212.3 391.1s18.4 14.6 21.8 17.2c3.4 2.6 8 5.5 21.2 7.5 13.1 1.9 19.8 2.8 19.8 2.8v1.1s-11.9-1.7-19.8-2.7c-7.9-1-14-1.4-21.1-6.2-6.9-4.6-21.9-15.2-21.9-15.2v-4.5z"/><path class="st1" d="M212.3 399.3s18.4 12.3 21.9 14.3c3.5 1.9 7.6 5.1 21.1 6.8 13.5 1.7 19.8 2.5 19.8 2.5v1.1s-11.1-1.2-19.8-2.2c-8.7-.9-14.6-2.2-21.1-5.8-6.5-3.6-21.8-12.6-21.8-12.6v-4.1h-.1z"/><path class="st1" d="M212.3 407.5s16.3 8.9 21.8 11.7c6.2 3.1 11.5 4.6 21.1 5.7 9.5 1.1 19.8 2.2 19.8 2.2v1s-9.6-1-19.8-2c-10.2-1-13.8-1.4-21.1-4.7-6.6-2.9-21.8-10.1-21.8-10.1v-3.8z"/><path class="st1" d="M212.3 415.8s12.9 5.5 21.9 9.1c8.9 3.5 15.7 3.8 21.1 4.5 2.4.3 19.7 2.1 19.7 2.1v1s-10.4-.8-19.8-1.7c-9.4-.8-13.5-1.2-21.1-3.7-7.7-2.6-21.9-7.5-21.9-7.5l.1-3.8zM212.3 424.3s13 4 21.9 6.4c8.9 2.3 17 3.3 21.1 3.6 4.1.3 19.8 1.6 19.8 1.6v.9s-8.9-.6-19.8-1.4c-8.8-.6-15.9-1.3-21.1-2.4-5.8-1.3-21.8-5.1-21.8-5.1v-3.6h-.1zM212.3 432.7s10.6 1.8 21.9 3.7c8.4 1.4 19.8 2.3 21.1 2.3 1.2.1 19.8 1.3 19.8 1.3v1s-11.9-.6-19.8-1.1c-8.3-.5-16.5-1-21.1-1.4-10.4-1.1-21.8-2.5-21.8-2.5v-3.3h-.1zM212.3 441.3s16.8.6 21.9.7c5.1.1 40.9 1.6 40.9 1.6v1h-62.8v-3.3zM255.2 393c-15.2-3.3-18.6-8.9-21.2-12.3-2.5-3.5-21.8-31.6-21.8-31.6v6.4c.8 1 17.2 22.6 21.8 28.5 5.2 6.7 13.4 8.2 21.1 9.9 7.8 1.7 19.8 4 19.8 4v-.9c.2 0-15.7-3.1-19.7-4"/><path class="st1" d="M255.2 397.5c-12.5-2.4-17.5-6.4-21.2-11.2-3.7-4.8-21.8-28.7-21.8-28.7v6c.8.9 17.3 20.6 21.8 25.7 5.2 6 12.4 7.5 21.2 9.1 8.8 1.6 19.8 3.7 19.8 3.7v-.9c.1.1-12.6-2.3-19.8-3.7"/><path class="st1" d="M255.2 402.1c-13-2.5-15.6-4.6-21.1-10.6-3.4-3.8-21.1-24.7-21.8-25.5v5.6s16.5 17.6 21.8 22.8c6.9 6.8 13.5 7.3 21.2 8.7l19.8 3.6v-.9c0-.1-14.7-2.7-19.9-3.7"/><path class="st2" d="M108 383.9h90.5v60.7H108z"/><path class="st3" d="M154.2 392.5h3.2l-2.6 2 1 3.1-2.5-1.9-2.5 1.9 1-3.1-2.6-2h3.1l1-3.1zM154.3 433h3.2l-2.5 1.9.9 3-2.5-1.8-2.5 1.8 1-3-2.6-1.9h3.2l.9-3zM164.3 430.3h3.2l-2.6 1.9 1 3.1-2.5-1.9-2.5 1.9 1-3.1-2.6-1.9h3.1l1-2.9zM164.3 395.2h3.2l-2.6 1.9 1 3-2.5-1.8-2.5 1.8 1-3-2.6-1.9h3.1l1-3zM171.7 402.6h3.2l-2.6 1.9 1 3.1-2.5-1.9-2.5 1.9 1-3.1-2.6-1.9h3.2l.9-2.9zM171.7 423h3.2l-2.6 1.9 1 3-2.5-1.8-2.5 1.8 1-3-2.6-1.9h3.2l.9-3zM174.5 412.7h3.2l-2.6 1.9 1 3-2.5-1.9-2.5 1.9 1-3-2.6-1.9h3.1l1-3zM144 395.2h3.2l-2.5 1.9.9 3.1-2.5-1.9-2.5 1.9 1-3.1-2.6-1.9h3.2l.9-2.9zM136.8 402.7h3.2l-2.5 1.9.9 3-2.5-1.9-2.5 1.9 1-3-2.6-1.9h3.2l.9-3zM134.2 412.7h3.1l-2.5 1.9 1 3-2.6-1.8-2.5 1.8 1-3-2.6-1.9h3.2l.9-3zM136.8 423h3.2l-2.5 1.9.9 3.1-2.5-1.9-2.5 1.9 1-3.1-2.6-1.9h3.2l.9-2.9zM144.2 430.3h3.1l-2.5 2 .9 3-2.5-1.9-2.5 1.9 1-3-2.6-2h3.2l.9-2.9z"/></g></svg>