<svg xmlns="http://www.w3.org/2000/svg" viewBox="20 0 40 40"><path fill="#C8A051" d="M20 0v40h40V0H20zm29.9 23.6c0 3.4-2.8 6.4-6.4 6.4h-7.3c-3.5 0-6.4-2.8-6.4-6.4v-7.4c0-3.5 2.8-6.4 6.4-6.4h4.5c1.6.2 4 1.6 4.8 3.4.2.5.4.6.6 2.1.1.8.1 1.4.5 1.8.5.5 2.4.1 2.7.5l.2.2.1.4.1.2.2 5.2z"/><path fill="#C8A051" d="M43.5 22.4h-7.1c-.7 0-1.2.6-1.2 1.2 0 .7.6 1.2 1.2 1.2h7.1c.7 0 1.2-.6 1.2-1.2 0-.7-.5-1.2-1.2-1.2zM36.5 17.5H40c.7 0 1.2-.6 1.2-1.2 0-.7-.6-1.2-1.2-1.2h-3.5c-.7 0-1.2.6-1.2 1.2-.1.8.5 1.2 1.2 1.2z"/><path fill="#FFF" d="M49.8 18l-.4-.2c-.4-.2-2.2 0-2.7-.5-.4-.4-.4-.9-.5-1.8-.2-1.5-.4-1.6-.6-2.1-.8-1.9-3.3-3.3-4.8-3.4h-4.5c-3.5 0-6.4 2.8-6.4 6.4v7.4c0 3.4 2.8 6.4 6.4 6.4h7.3c3.5 0 6.4-2.8 6.4-6.4v-5.1l-.1-.2-.1-.5zm-13.3-2.8H40c.7 0 1.2.6 1.2 1.2 0 .7-.6 1.2-1.2 1.2h-3.5c-.7 0-1.2-.6-1.2-1.2-.1-.6.5-1.2 1.2-1.2zm7 9.6h-7.1c-.7 0-1.2-.6-1.2-1.2 0-.7.6-1.2 1.2-1.2h7.1c.7 0 1.2.6 1.2 1.2s-.5 1.2-1.2 1.2z"/></svg>