<svg id="Layer_1" xmlns="http://www.w3.org/2000/svg" viewBox="-256.3 338.6 450 164"><style>.st0{fill:#404040}.st1{fill:#bcbec0}.st2{fill:#0d4f9e}.st3{fill:#faea27}</style><path class="st0" d="M-164 471.8c0-.5.3-.8.8-.8h14.7c.5 0 .8.3.8.8v2.5c0 .5-.3.7-.8.7h-10.9v6.9h9.7c.5 0 .8.2.8.7v2.5c0 .5-.3.7-.8.7h-9.7v7.9h11.2c.5 0 .7.3.7.8v2.4c0 .5-.3.7-.8.7h-14.9c-.5 0-.8-.2-.8-.7v-25.1zM-133.2 493.9c1.8 0 3.1-.5 4-1.5.9-1 1.4-2.5 1.4-4.6v-16c0-.5.3-.8.8-.8h3c.3 0 .5.1.6.2.1.1.1.3.1.6v16c0 .8 0 1.6-.1 2.4s-.3 1.6-.6 2.3c-.4 1-.9 1.8-1.5 2.4-.6.7-1.3 1.2-2.1 1.6s-1.7.7-2.6.9c-.9.2-1.9.3-2.9.3-4.2 0-7.1-1.5-8.6-4.4-.4-.8-.7-1.7-.9-2.6-.2-.9-.3-1.9-.3-3v-16c0-.5.3-.8.8-.8h3c.5 0 .8.3.8.8v16c0 2 .4 3.5 1.3 4.5.8 1.2 2.1 1.7 3.8 1.7zM-107 483.1c.5 0 .7.2.7.6v2c0 .4-.2.6-.7.6h-11.6c-.5 0-.7-.2-.7-.6v-2c0-.4.2-.6.7-.6h11.6zM-97.8 483.8l3-3.9 6.7-8.3c.2-.2.4-.4.6-.5s.4-.1.8-.1h3.6c.3 0 .5.1.5.2.1.2 0 .3-.2.6l-8.6 10.6 9 14.4c.2.3.2.5.1.6s-.3.2-.5.2h-3.7c-.3 0-.6-.1-.8-.2-.2-.1-.3-.3-.5-.6l-6.6-10.9-3.5 4.4v6.5c0 .2 0 .4-.1.5s-.3.2-.6.2h-3c-.5 0-.8-.3-.8-.8v-25c0-.5.3-.8.8-.8h3c.3 0 .5.1.6.2.1.1.1.3.1.6l.1 12.1zM-62.8 487.5c0 1.1-.1 2.3-.2 3.6-.1 1.2-.5 2.4-1.1 3.4s-1.5 1.9-2.6 2.5c-1.2.7-2.8 1-4.9 1-2 0-3.6-.3-4.7-1s-2-1.5-2.6-2.5-.9-2.2-1.1-3.4c-.1-1.2-.2-2.4-.2-3.6 0-.9.1-2 .3-3.1.2-1.1.6-2.2 1.1-3.2.6-1 1.4-1.8 2.6-2.5 1.1-.7 2.7-1 4.6-1s3.5.3 4.6.9c1.2.6 2 1.4 2.7 2.3.6.9 1 2 1.2 3.2.2 1 .3 2.2.3 3.4zm-4.4.3c0-1.1-.1-2-.2-2.8-.1-.8-.3-1.4-.6-2-.3-.5-.8-.9-1.3-1.2-.5-.3-1.3-.4-2.2-.4-.9 0-1.5.1-2.1.4-.5.3-1 .7-1.3 1.2s-.5 1.2-.6 2c-.1.8-.2 1.7-.2 2.7 0 1.1.1 2 .2 2.8.1.8.3 1.4.6 2 .3.5.7.9 1.2 1.2.5.3 1.2.4 2.1.4s1.6-.1 2.2-.4c.6-.3 1-.6 1.3-1.2.3-.5.5-1.2.6-2 .2-.7.3-1.7.3-2.7zM-30.3 497.4c-.1.1-.3.2-.6.2h-2.9c-.5 0-.8-.3-.8-.8v-11.4c0-1.5-.2-2.5-.6-3-.4-.5-1.1-.8-2.1-.8-.4 0-.8.1-1.3.2s-.9.3-1.4.5c-.5.2-.9.4-1.3.6-.4.2-.8.4-1.1.6v13.3c0 .2-.1.4-.2.6-.1.1-.3.2-.6.2H-46c-.5 0-.7-.3-.7-.8v-11.6c0-1.2-.2-2.1-.6-2.7-.4-.6-1.1-.9-2.1-.9-.3 0-.7.1-1.2.2s-.9.3-1.4.4c-.5.2-.9.4-1.4.6s-.9.4-1.2.6v13.4c0 .5-.3.8-.8.8h-2.9c-.5 0-.7-.3-.7-.8v-18c0-.5.2-.8.7-.8h2.8c.5 0 .8.3.8.8v1.2c.4-.3.8-.5 1.3-.8.5-.3.9-.5 1.5-.7.5-.2 1-.4 1.6-.5.5-.1 1.1-.2 1.6-.3 1.1 0 2.2.2 3.1.5.9.4 1.7 1.1 2.3 2.3 1-.7 2.1-1.4 3.3-2 1.2-.6 2.4-.8 3.7-.8 1.3 0 2.3.2 3.1.6s1.4.9 1.8 1.6c.4.7.7 1.5.8 2.4s.2 1.9.2 2.8v11.8c.2.2.2.4.1.5zM2.7 497.4c-.1.1-.3.2-.6.2H-.8c-.5 0-.8-.3-.8-.8v-11.4c0-1.5-.2-2.5-.6-3-.4-.5-1.1-.8-2.1-.8-.4 0-.8.1-1.3.2s-.9.3-1.4.5c-.5.2-.9.4-1.3.6-.4.2-.8.4-1.1.6v13.3c0 .2-.1.4-.2.6-.1.1-.3.2-.6.2H-13c-.5 0-.7-.3-.7-.8v-11.6c0-1.2-.2-2.1-.6-2.7-.4-.6-1.1-.9-2.1-.9-.3 0-.7.1-1.2.2s-.9.3-1.4.4c-.5.2-.9.4-1.4.6s-.9.4-1.2.6v13.4c0 .5-.3.8-.8.8h-2.9c-.5 0-.7-.3-.7-.8v-18c0-.5.2-.8.7-.8h2.8c.5 0 .8.3.8.8v1.2c.4-.3.8-.5 1.3-.8.5-.3.9-.5 1.5-.7.5-.2 1-.4 1.6-.5.5-.1 1.1-.2 1.6-.3 1.1 0 2.2.2 3.1.5.9.4 1.7 1.1 2.3 2.3 1-.7 2.1-1.4 3.3-2s2.4-.8 3.7-.8 2.3.2 3.1.6 1.4.9 1.8 1.6c.4.7.7 1.5.8 2.4s.2 1.9.2 2.8v11.8c.2.2.2.4.1.5zM12.3 472.8c0 .3 0 .6-.1.9s-.2.5-.3.7c-.2.2-.4.4-.7.5s-.7.2-1.2.2-1-.1-1.3-.2-.5-.3-.7-.5c-.2-.2-.3-.5-.3-.7-.1-.3-.1-.6-.1-.9 0-.6.2-1.2.5-1.6s.9-.7 1.9-.7 1.6.2 1.9.6c.2.5.4 1 .4 1.7zm-.3 24c0 .2 0 .4-.1.5s-.3.2-.6.2H8.5c-.5 0-.8-.3-.8-.8v-18.1c0-.5.3-.8.8-.8h2.8c.3 0 .5.1.6.2s.1.3.1.5v18.3zM31.6 491.7c0 1.2-.2 2.2-.7 2.9-.5.8-1.1 1.4-1.8 1.9s-1.6.8-2.6 1c-1 .2-2 .3-3 .3s-2.1-.1-3.3-.2-2.1-.4-2.9-.7c-.4-.2-.7-.3-.8-.5-.1-.2-.1-.5-.1-.8l.3-1.3c.1-.3.2-.5.3-.6.2-.1.4-.1.7 0 .4.1.9.1 1.4.2.5.1 1 .1 1.6.1s1 .1 1.5.1h1.2c1.3 0 2.2-.2 2.8-.5.6-.4.8-.9.8-1.7 0-.5 0-.8-.1-1.1-.1-.3-.3-.5-.5-.7-.2-.2-.6-.3-1-.5-.4-.1-.9-.2-1.6-.3-1-.1-1.9-.3-2.8-.5-.9-.2-1.7-.5-2.3-.9-.7-.4-1.2-1-1.6-1.6-.4-.7-.6-1.6-.6-2.7 0-2 .7-3.5 2.1-4.5 1.4-1 3.2-1.5 5.4-1.5h1.4c.5 0 1.1.1 1.6.2s1.1.2 1.6.3 1 .2 1.4.4c.7.3.9.7.8 1.2l-.3 1.4c-.1.3-.2.5-.3.5-.1.1-.4.1-.8 0-.9-.1-1.8-.2-2.8-.3s-1.9-.1-2.6-.1c-1.3 0-2.1.2-2.5.5-.4.4-.6.9-.6 1.7 0 .8.3 1.3.8 1.5.5.2 1.4.5 2.6.6 1 .1 1.9.3 2.7.5.9.2 1.6.5 2.3 1 .7.4 1.2 1 1.6 1.7.5.9.7 1.8.7 3zM50 491.7c0 1.2-.2 2.2-.7 2.9-.5.8-1.1 1.4-1.8 1.9s-1.6.8-2.6 1c-1 .2-2 .3-3 .3s-2.1-.1-3.3-.2-2.1-.4-2.9-.7c-.4-.2-.7-.3-.8-.5-.1-.2-.1-.5-.1-.8l.3-1.3c.1-.3.2-.5.3-.6.2-.1.4-.1.7 0 .4.1.9.1 1.4.2.5.1 1 .1 1.6.1.5 0 1 .1 1.5.1h1.2c1.3 0 2.2-.2 2.8-.5.6-.4.8-.9.8-1.7 0-.5 0-.8-.1-1.1-.1-.3-.3-.5-.5-.7-.2-.2-.6-.3-1-.5-.4-.1-.9-.2-1.6-.3-1-.1-1.9-.3-2.8-.5-.9-.2-1.7-.5-2.3-.9-.7-.4-1.2-1-1.6-1.6-.4-.7-.6-1.6-.6-2.7 0-2 .7-3.5 2.1-4.5 1.4-1 3.2-1.5 5.4-1.5h1.4c.5 0 1.1.1 1.6.2s1.1.2 1.6.3 1 .2 1.4.4c.7.3.9.7.8 1.2l-.3 1.4c-.1.3-.2.5-.3.5-.1.1-.4.1-.8 0-.9-.1-1.8-.2-2.8-.3s-1.9-.1-2.6-.1c-1.3 0-2.1.2-2.5.5-.4.4-.6.9-.6 1.7 0 .8.3 1.3.8 1.5.5.2 1.4.5 2.6.6 1 .1 1.9.3 2.7.5.9.2 1.6.5 2.3 1 .7.4 1.2 1 1.6 1.7.5.9.7 1.8.7 3zM58.9 472.8c0 .3 0 .6-.1.9s-.2.5-.3.7c-.2.2-.4.4-.7.5s-.7.2-1.2.2-1-.1-1.3-.2-.5-.3-.7-.5c-.2-.2-.3-.5-.3-.7-.1-.3-.1-.6-.1-.9 0-.6.2-1.2.5-1.6s.9-.7 1.9-.7 1.6.2 1.9.6c.2.5.4 1 .4 1.7zm-.3 24c0 .2 0 .4-.1.5s-.3.2-.6.2h-2.8c-.5 0-.8-.3-.8-.8v-18.1c0-.5.3-.8.8-.8h2.8c.3 0 .5.1.6.2s.1.3.1.5v18.3zM80.6 487.5c0 1.1-.1 2.3-.2 3.6-.1 1.2-.5 2.4-1.1 3.4s-1.5 1.9-2.6 2.5c-1.2.7-2.8 1-4.9 1-2 0-3.6-.3-4.7-1s-2-1.5-2.6-2.5-.9-2.2-1.1-3.4c-.1-1.2-.2-2.4-.2-3.6 0-.9.1-2 .3-3.1s.6-2.2 1.1-3.2c.6-1 1.4-1.8 2.6-2.5 1.2-.7 2.7-1 4.6-1 1.9 0 3.5.3 4.6.9 1.2.6 2 1.4 2.7 2.3.6.9 1 2 1.2 3.2.2 1 .3 2.2.3 3.4zm-4.5.3c0-1.1-.1-2-.2-2.8-.1-.8-.3-1.4-.6-2s-.8-.9-1.3-1.2c-.6-.3-1.3-.4-2.2-.4s-1.5.1-2.1.4c-.5.3-1 .7-1.3 1.2s-.5 1.2-.6 2c-.1.8-.2 1.7-.2 2.7 0 1.1.1 2 .2 2.8.1.8.3 1.4.6 2 .3.5.7.9 1.2 1.2.5.3 1.2.4 2.1.4.9 0 1.6-.1 2.2-.4.6-.3 1-.6 1.3-1.2.3-.6.5-1.2.6-2 .1-.8.3-1.7.3-2.7zM101.3 497.4c-.1.1-.3.2-.6.2h-2.9c-.5 0-.8-.3-.8-.8v-11.2c0-1.2-.2-2.1-.6-2.8-.4-.7-1.2-1.1-2.3-1.1-.4 0-.9.1-1.4.2-.5.1-1 .3-1.6.5l-1.5.6c-.5.2-.8.4-1.1.5v13.4c0 .5-.3.8-.8.8h-2.8c-.5 0-.8-.3-.8-.8v-18c0-.5.3-.8.8-.8h2.8c.5 0 .8.3.8.8v1.2h.2c.4-.3.8-.5 1.3-.8.5-.3 1.1-.5 1.7-.8l1.8-.6c.6-.1 1.3-.2 1.9-.2 1.4 0 2.4.2 3.2.6.8.4 1.4 1 1.8 1.7.4.7.7 1.5.8 2.4.1.9.2 1.9.2 2.9v11.6c.1.2 0 .4-.1.5z"/><g><path class="st1" d="M-119.7 381.8s62.2-8.1 64-8.4c2.7-.4 5.1-1 7.3-1.6 5-1.4 9.7-3.5 13.8-6.3 3.9-2.7 7.6-6.5 11.2-10.8 2.3-2.7 4.7-6.2 7-9.6v-1.7c-2.7 4-5.3 7.5-8 10.5-3.6 4-7.4 7.4-11.2 9.8-4 2.6-8.4 4.5-13.3 5.7-2.2.6-4.5 1-7.1 1.4-1.7.2-3.5.4-5.2.6-.7.1-58.4 6.3-58.4 6.3v4.1h-.1z"/><path class="st1" d="M-36.3 371.3c-3.9 2.3-8.4 3.9-13.4 4.9-2.1.4-4.4.8-7.1 1.1-1.6.2-3.1.3-4.7.4-.8.1-1.7.1-2.5.2-19.1 1.7-38 3.6-55.8 5.3v4.2c17.9-2.2 37-4.5 56.1-6.7.8-.1 1.7-.2 2.5-.3 1.6-.2 3.1-.3 4.7-.6 2.7-.4 5.1-.8 7.3-1.3 5.2-1.2 9.8-3 13.9-5.5 4-2.4 7.6-5.8 11.4-10 2.4-2.6 5-6.3 7.5-9.7v-1.4c-2.9 4-5.7 7.3-8.4 10.2-3.8 3.9-7.6 7-11.5 9.2"/><path class="st1" d="M-25.4 370.3c-3.8 3.5-7.8 6.3-11.8 8.2-3.9 1.9-8.3 3.3-13.5 4.1-2.1.4-4.4.6-7 .9l-62.1 5.2v4.1l55.2-5.9 7.1-.8c2.7-.3 5-.7 7.2-1.1 5.3-1 9.9-2.5 13.9-4.6 4.1-2.1 8.3-5.6 12.1-9.4 2.6-2.5 5.1-5.7 7.7-9.1v-1.4c-2.9 3.9-5.8 7.1-8.8 9.8"/><path class="st1" d="M-40.4 391.4c-3.6 2-6.3 3.2-11.5 3.8-3.1.3-6.3.5-9.4.7-1.5.1-3 .2-4.5.2-9.4.5-18.6 1.1-28 1.8l-25.9 1.8v4.1l26.2-2.4c8.5-.8 18.3-1.7 27.9-2.4l7-.5c2.7-.2 5-.4 7-.7 5.3-.7 9.8-1.8 13.9-3.3 4.3-1.6 8.4-4.2 12.5-7.2 3.7-2.7 8.8-8 8.8-8.1v-1.4c-3.3 3.3-5.3 5.1-8.9 7.6-4.4 2.7-11.8 4.2-15.1 6"/><path class="st1" d="M-39.1 399.2c-3.9 1.2-8.3 1.9-13.5 2.4-2.1.2-4.3.3-6.9.4l-6.9.3c-17.3.8-34.4 1.7-53.4 2.7v4.1c18.1-1.4 35.8-2.8 53.5-4.1l6.9-.5c2.7-.2 4.9-.4 7-.6 5.3-.6 9.8-1.5 13.8-2.8 4.4-1.4 8.8-3.5 12.9-6.1 3-1.9 6.1-4.3 9.2-7v-.1c-3.5 3-6.8 3.6-10 5.7-4 2.4-8.2 4.3-12.6 5.6"/><path class="st1" d="M-39.7 405.9c-3.9.9-8.2 1.5-13.5 1.9-2 .1-4.2.2-6.8.3l-6.9.3c-17.3.7-34.9 1.4-52.9 2.2v4.1c17.8-1.2 35.3-2.4 53-3.5l6.9-.4c2.7-.2 4.9-.3 6.9-.5 5.3-.5 9.7-1.2 13.7-2.3 4.5-1.2 8.9-2.9 13.1-5.1 3.2-1.7 6.4-3.8 9.7-6.3v-1.7c-3.6 2.6-7 4.8-10.5 6.5-4 1.9-8.3 3.5-12.7 4.5"/><path class="st1" d="M-40.3 412.5c-4 .7-8.2 1.2-13.4 1.5-2 .1-4 .2-6.8.2l-59.2 1.6v4.1l52.5-2.8 6.8-.3c2.7-.1 4.8-.3 6.8-.4 5.3-.4 9.6-1 13.6-1.8 4.6-1 9-2.4 13.2-4.2 3.4-1.4 6.8-3.2 10.3-5.4v-1.6c-3.8 2.2-7.3 4-10.9 5.4-4.1 1.7-8.4 2.9-12.9 3.7"/><path class="st1" d="M-40.8 419.2c-7.3 1-14.8 1.1-22 1.2-1.7 0-3.3 0-5 .1l-52 .9v4.1l52.1-2.3c1.7-.1 3.3-.1 5-.2 7.3-.3 14.8-.6 22.2-1.8 4.7-.7 9.2-1.8 13.3-3.3 3.5-1.2 7.1-2.7 10.7-4.5v-1.6c-3.8 1.8-7.6 3.3-11.2 4.4-4.1 1.4-8.5 2.4-13.1 3M-41.2 425.9c-6.8.5-13.8.5-20.5.5H-68c-17.2.1-34.3.2-51.7.4v4.1c16.6-.6 34.2-1.2 51.8-1.7 2.1-.1 4.2-.1 6.3-.2 6.8-.2 13.8-.4 20.7-1.1 4.8-.5 9.2-1.3 13.4-2.3 3.7-.9 7.4-2.1 11.2-3.6v-1.5c-3.9 1.4-7.8 2.6-11.5 3.4-4.3.9-8.7 1.6-13.4 2M-41.4 432.5c-2.8.1-5.9.2-9.4.2h-3.9l-13.5-.3h-51.5v4l24.8-.7c8.5-.2 17.7-.4 26.8-.6l13.4-.2c3.7-.1 8.5-.2 13.4-.5 4.8-.3 9.2-.8 13.4-1.5 3.8-.6 7.6-1.4 11.5-2.4v-1.4c-4 .9-7.9 1.7-11.7 2.2-4.3.6-8.6 1-13.3 1.2M-54.9 438.8l-13.4-.1c-17-.2-34.1-.6-51.4-.9v4.1c16.6-.1 34.1-.2 51.4-.4l13.4-.2 13.4-.3c9.2-.3 17.4-1 25.1-2v-1.4c-7.7.8-16 1.3-25.1 1.3-4.5 0-9 0-13.4-.1M-16.4 446l-103.3-2.6v4h103.3zM-25.7 377.9c-3.9 3.2-7 5.5-11.8 7.4-4.2 1.7-8.7 2.4-13.8 3.1-3.3.5-6.8 1.2-10.1 1.4-1.4.1-2.7.2-4.1.3l-54.3 4v4.1l54.5-5.3 7.1-.7c2.6-.3 4.9-.5 7.1-.9 5.3-.9 9.8-2.2 13.9-4 4.2-1.9 8.5-5 12.5-8.4 2.7-2.3 5.3-5.2 8.2-8.4V369c-3.4 3.6-6.2 6.5-9.2 8.9M27.5 343.4s18.6 29.7 22 35.2c3.4 5.4 7.3 9.8 21 12.7 13.8 2.9 19.7 4.3 19.7 4.3v1.1s-8.7-1.9-20-4.4c-11.2-2.5-15.8-3.4-21-10.5-4.3-6-21.8-31.3-21.8-31.3v-7.1h.1zM27.5 377.3s16.9 17.8 21.8 22.9c5.2 5.4 11.8 7.4 21.1 9.1 8.8 1.6 19.9 3.4 19.9 3.4v1s-10.4-1.7-19.9-3.3c-9.3-1.6-15.8-2.5-21.1-7.4-4.8-4.4-21.8-20.4-21.8-20.4v-5.3z"/><path class="st1" d="M27.5 385.3s16.1 15 21.8 20.1c5.3 4.7 9.5 6.2 21.1 8.2 11.6 2.1 19.8 3.3 19.8 3.3v1.1s-10.5-1.7-19.9-3.2-15.4-2.1-21.1-6.7c-6.5-5.3-21.8-17.9-21.8-17.9l.1-4.9z"/><path class="st1" d="M27.5 393.9s18.4 14.6 21.8 17.2c3.4 2.6 8 5.5 21.2 7.5 13.1 1.9 19.8 2.8 19.8 2.8v1.1s-11.9-1.7-19.8-2.7c-7.9-1-14-1.4-21.1-6.2-6.9-4.6-21.9-15.2-21.9-15.2v-4.5z"/><path class="st1" d="M27.5 402.1s18.4 12.3 21.9 14.3c3.5 1.9 7.6 5.1 21.1 6.8s19.8 2.5 19.8 2.5v1.1s-11.1-1.2-19.8-2.2c-8.7-.9-14.6-2.2-21.1-5.8s-21.8-12.6-21.8-12.6l-.1-4.1z"/><path class="st1" d="M27.5 410.3s16.3 8.9 21.8 11.7c6.2 3.1 11.5 4.6 21.1 5.7 9.5 1.1 19.8 2.2 19.8 2.2v1s-9.6-1-19.8-2-13.8-1.4-21.1-4.7c-6.6-2.9-21.8-10.1-21.8-10.1v-3.8z"/><path class="st1" d="M27.5 418.6s12.9 5.5 21.9 9.1c8.9 3.5 15.7 3.8 21.1 4.5 2.4.3 19.7 2.1 19.7 2.1v1s-10.4-.8-19.8-1.7c-9.4-.8-13.5-1.2-21.1-3.7-7.7-2.6-21.9-7.5-21.9-7.5v-3.8h.1zM27.5 427.1s13 4 21.9 6.4c8.9 2.3 17 3.3 21.1 3.6 4.1.3 19.8 1.6 19.8 1.6v.9s-8.9-.6-19.8-1.4c-8.8-.6-15.9-1.3-21.1-2.4-5.8-1.3-21.8-5.1-21.8-5.1l-.1-3.6zM27.5 435.5s10.6 1.8 21.9 3.7c8.4 1.4 19.8 2.3 21.1 2.3 1.2.1 19.8 1.3 19.8 1.3v1s-11.9-.6-19.8-1.1c-8.3-.5-16.5-1-21.1-1.4-10.4-1.1-21.8-2.5-21.8-2.5l-.1-3.3zM27.5 444.1s16.8.6 21.9.7c5.1.1 40.9 1.6 40.9 1.6v1H27.5v-3.3zM70.4 395.8c-15.2-3.3-18.6-8.9-21.2-12.3-2.5-3.5-21.8-31.6-21.8-31.6v6.4c.8 1 17.2 22.6 21.8 28.5 5.2 6.7 13.4 8.2 21.1 9.9 7.8 1.7 19.8 4 19.8 4v-.9c.2 0-15.7-3.1-19.7-4"/><path class="st1" d="M70.4 400.3c-12.5-2.4-17.5-6.4-21.2-11.2-3.7-4.8-21.8-28.7-21.8-28.7v6c.8.9 17.3 20.6 21.8 25.7 5.2 6 12.4 7.5 21.2 9.1s19.8 3.7 19.8 3.7v-.9c.1.1-12.6-2.3-19.8-3.7"/><path class="st1" d="M70.4 404.9c-13-2.5-15.6-4.6-21.1-10.6-3.4-3.8-21.1-24.7-21.8-25.5v5.6S44 392 49.3 397.2c6.9 6.8 13.5 7.3 21.2 8.7l19.8 3.6v-.9c0-.1-14.7-2.7-19.9-3.7"/><path class="st2" d="M-76.8 386.7h90.5v60.7h-90.5z"/><path class="st3" d="M-30.6 395.3h3.2l-2.6 2 1 3.1-2.5-1.9-2.5 1.9 1-3.1-2.6-2h3.1l1-3.1zM-30.5 435.8h3.2l-2.5 1.9.9 3-2.5-1.8-2.5 1.8 1-3-2.6-1.9h3.2l.9-3zM-20.5 433.1h3.2l-2.6 1.9 1 3.1-2.5-1.9-2.5 1.9 1-3.1-2.6-1.9h3.1l1-2.9zM-20.5 398h3.2l-2.6 1.9 1 3-2.5-1.8-2.5 1.8 1-3-2.6-1.9h3.1l1-3zM-13.1 405.4h3.2l-2.6 1.9 1 3.1-2.5-1.9-2.5 1.9 1-3.1-2.6-1.9h3.2l.9-2.9zM-13.1 425.8h3.2l-2.6 1.9 1 3-2.5-1.8-2.5 1.8 1-3-2.6-1.9h3.2l.9-3zM-10.3 415.5h3.2l-2.6 1.9 1 3-2.5-1.9-2.5 1.9 1-3-2.6-1.9h3.1l1-3zM-40.8 398h3.2l-2.5 1.9.9 3.1-2.5-1.9-2.5 1.9 1-3.1-2.6-1.9h3.2l.9-2.9zM-48 405.5h3.2l-2.5 1.9.9 3-2.5-1.9-2.5 1.9 1-3-2.6-1.9h3.2l.9-3zM-50.6 415.5h3.1l-2.5 1.9 1 3-2.6-1.8-2.5 1.8 1-3-2.6-1.9h3.2l.9-3zM-48 425.8h3.2l-2.5 1.9.9 3.1-2.5-1.9-2.5 1.9 1-3.1-2.6-1.9h3.2l.9-2.9zM-40.6 433.1h3.1l-2.5 2 .9 3-2.5-1.9-2.5 1.9 1-3-2.6-2h3.2l.9-2.9z"/></g></svg>